<svg xmlns="http://www.w3.org/2000/svg" xmlns:xlink="http://www.w3.org/1999/xlink" version="1.1" x="0px" y="0px" viewBox="0 0 100 125" style="enable-background:new 0 0 100 100;" xml:space="preserve"><g><path d="M79.0244141,32.8901367c-10.1804199-9.3927002-20.8163452-6.0576782-28.6958618-3.4126587   c0.0806274-0.8327026,0.0801392-1.6498413,0.020752-2.4498291c6.3997803-0.5950928,10.9996948-2.7312622,13.6589966-6.364563   c3.4111328-4.659668,2.2666016-9.9824219,2.2158203-10.206543c-0.1723633-0.7675781-0.9121094-1.2758789-1.6845703-1.1547852   c-6.9462891,1.0351562-11.7680664,3.5454102-14.3305664,7.4614258c-0.8396606,1.282959-1.3309937,2.5720825-1.6140747,3.7659912   c-1.1890869-2.5872803-2.5447998-4.3121948-2.6652222-4.461792c-0.5195312-0.6459961-1.4648438-0.7480469-2.1088867-0.2280273   c-0.6455078,0.5195312-0.7475586,1.4638672-0.2280273,2.1088867c0.0508423,0.0632324,4.7501221,5.9940186,3.6411133,12.1022949   c-7.8460693-3.7301636-18.0013428-6.762146-26.9926758,2.9216309c-7.4785156,8.0537109-8.9819336,25.1103516-3.3515625,38.0209961   c5.6728516,13.0087891,17.315918,20.1728516,32.784668,20.1728516c16.1269531,0,28.5322266-8.074707,34.0351562-22.1533203   C88.8320312,55.9077148,86.7739258,40.0410156,79.0244141,32.8901367z M52.7192383,18.4057617   c1.8925781-2.8920898,5.4946289-4.8642578,10.7192383-5.8740234c0.0463867,1.550293-0.1918945,4.1123047-1.8730469,6.3901367   c-1.9785156,2.6791992-5.4404297,4.355957-10.3027344,4.9931641   C51.1899414,22.6196289,51.3496094,20.4985352,52.7192383,18.4057617z M80.9150391,67.9204102   c-2.9555664,7.5610352-10.9443359,20.2456055-31.2421875,20.2456055c-14.2006836,0-24.8666992-6.5244141-30.0332031-18.3710938   c-4.5522461-10.4384766-4.5131836-26.9052734,2.7998047-34.7817383c3.7763672-4.0668945,7.7783203-5.5141602,11.7495117-5.5141602   c4.0463867,0,8.0610352,1.5029297,11.7719727,3.2675781c7.8618164,3.7387695,14.8242188,1.4282227,15.1162109,1.3276367   c0.7836914-0.2680664,1.2016602-1.1210938,0.9331055-1.9047852c-0.2685547-0.7841797-1.1210938-1.2021484-1.9047852-0.9331055   c-0.0424805,0.0141602-2.9946289,0.9941406-7.0761719,0.4873047c7.1943359-2.328125,15.7436523-4.2304688,23.9609375,3.3515625   C83.7802734,41.3603516,85.5410156,56.0859375,80.9150391,67.9204102z"/><path d="M32.9750977,32.8745117c-9.652832,1.4150391-11.6831055,10.4501953-12.0756836,13.1855469   c-0.1176758,0.8198242,0.4516602,1.5800781,1.2719727,1.6977539c0.0722656,0.0102539,0.144043,0.0151367,0.2148438,0.0151367   c0.7338867,0,1.3754883-0.5390625,1.4829102-1.2871094c1.2226562-8.5229492,7.0795898-10.2822266,9.5415039-10.6425781   c0.8193359-0.1206055,1.3867188-0.8823242,1.2666016-1.7021484C34.5566406,33.3212891,33.7998047,32.7509766,32.9750977,32.8745117   z"/><path d="M38.7578125,33.3901367c-0.3964844-0.1757812-0.8549805-0.3203125-1.3632812-0.4296875   c-0.8041992-0.1689453-1.6069336,0.3422852-1.7817383,1.1518555c-0.1738281,0.8100586,0.3417969,1.6074219,1.1518555,1.7817383   c0.3828125,0.0820312,0.6342773,0.1748047,0.7773438,0.2382812c0.1977539,0.0878906,0.4038086,0.1293945,0.6069336,0.1293945   c0.5751953,0,1.1240234-0.3330078,1.3720703-0.8925781C39.8569336,34.6118164,39.5151367,33.7255859,38.7578125,33.3901367z"/></g><text x="0" y="115" fill="#000000" font-size="5px" font-weight="bold" font-family="'Helvetica Neue', Helvetica, Arial-Unicode, Arial, Sans-serif">Created by Artem  Kovyazin</text><text x="0" y="120" fill="#000000" font-size="5px" font-weight="bold" font-family="'Helvetica Neue', Helvetica, Arial-Unicode, Arial, Sans-serif">from the Noun Project</text></svg>