<svg xmlns="http://www.w3.org/2000/svg" xmlns:xlink="http://www.w3.org/1999/xlink" version="1.1" x="0px" y="0px" viewBox="0 0 100 125" style="enable-background:new 0 0 100 100;" xml:space="preserve"><path d="M78.8,51.4c-0.7-7.5-3.2-12.9-7.6-16.2c-5.9-4.4-13.6-3.6-17.7-2.7c-0.5,0.1-0.9,0.2-1.4,0.2c0.6-2.5,2.3-8.2,6.7-11.5  c0.7-0.5,0.8-1.4,0.3-2.1c-0.5-0.7-1.4-0.8-2.1-0.3c-5.7,4.2-7.5,11.4-8,13.9c-0.5-0.1-1-0.1-1.5-0.2c-4.1-0.9-11.8-1.7-17.7,2.7  c-4.4,3.3-7,8.7-7.6,16.2c-0.9,9.9,1.5,18.3,6.9,24.2c5.2,5.6,13,8.9,21.4,8.9c8.4,0,16.2-3.2,21.4-8.9  C77.3,69.7,79.7,61.3,78.8,51.4z M69.7,73.6c-4.6,5-11.6,7.9-19.2,7.9s-14.6-2.9-19.2-7.9c-4.9-5.3-7-12.7-6.1-21.9  c0.6-6.6,2.7-11.3,6.4-14.1c2.9-2.2,6.5-2.8,9.6-2.8c2.2,0,4.2,0.3,5.7,0.6c0,0,0,0,0,0c2.4,0.5,4.8,0.5,7.2,0  c3.6-0.8,10.4-1.5,15.3,2.2c3.7,2.7,5.8,7.4,6.4,14.1C76.6,60.9,74.5,68.2,69.7,73.6z"/><text x="0" y="115" fill="#000000" font-size="5px" font-weight="bold" font-family="'Helvetica Neue', Helvetica, Arial-Unicode, Arial, Sans-serif">Created by Artem  Kovyazin</text><text x="0" y="120" fill="#000000" font-size="5px" font-weight="bold" font-family="'Helvetica Neue', Helvetica, Arial-Unicode, Arial, Sans-serif">from the Noun Project</text></svg>