<svg xmlns="http://www.w3.org/2000/svg" xmlns:xlink="http://www.w3.org/1999/xlink" version="1.1" x="0px" y="0px" viewBox="0 0 100 125" style="enable-background:new 0 0 100 100;" xml:space="preserve"><path d="M67.3930664,62.8969727c-0.0180664-0.0131836-1.8048706-1.4187622-1.918457-4.2652588L65.2392578,43.503418  c0-1.9702148,0.2055664-3.1025391,1.3598633-5.5341797c1.6333008-3.4404297,5.0498047-11.6713867,1.5131836-13.7890625  c-0.2440796-0.145874-0.494812-0.2408447-0.7498779-0.2972412c-1.204895-6.5780029-4.1306152-9.5142212-4.260376-9.6412354  c-0.4575195-0.4462891-1.1484375-0.5546875-1.7202148-0.2685547c-1.7419434,0.8725586-3.1930542,2.0933838-4.2341309,3.128479  c-2.6314697-6.4825439-6.289978-8.5721436-6.4763184-8.6743774c-0.4833984-0.2636719-1.0737305-0.2431641-1.5385742,0.0576172  c-3.2072754,2.0843506-4.9406738,5.4462891-5.5540161,6.8392944c-0.1959229,0.0184326-0.4007568,0.0647583-0.6104736,0.1262817  c-0.9456787-1.2607422-2.0412598-2.2832031-3.3775024-3.1516113c-0.4956055-0.3222656-1.1328125-0.3232422-1.628418-0.0039062  c-0.1691284,0.1085205-3.9651489,2.6358032-5.2819824,9.4421997c-0.2653198,0.0558472-0.5257568,0.1547241-0.7790527,0.3063354  c-3.5771484,2.1420898-0.109375,10.4926758,1.5478516,13.9833984c1.1035156,2.324707,1.6396484,4.5244141,1.6396484,6.7050781  l-0.0444946,3.4551392c-0.1220093,3.0556641-1.946228,5.0634155-1.9589233,5.0770874  c-0.2739258,0.2895508-0.421875,0.6762695-0.4101562,1.0751953c0.0117188,0.3984375,0.1816406,0.7758789,0.472168,1.0493164  c0.1265259,0.1189575,0.5966187,0.4986572,1.4874268,0.8153687l-0.5665283,13.5785522  c-0.1640015,0.0454102-0.324707,0.1125488-0.4711914,0.2169189c-0.6748047,0.4799805-0.8330078,1.4165039-0.3525391,2.0917969  c0.0992432,0.1395264,0.27771,0.3369751,0.5810547,0.5640259c-0.4680786,2.0479736-1.732666,3.0736084-1.7861328,3.1151733  c-0.6508789,0.4838867-0.7993164,1.3964844-0.3364258,2.0615234c0.0446777,0.0637207,0.7166138,1.0018921,1.979187,1.7254028  l-0.2990112,8.3947144c-0.0874023,2.2080078,1.5429688,4.1650391,3.8769531,4.6533203  c0.8544922,0.1787109,1.7729492,0.2680664,2.7509766,0.2680664c1.3296509,0,2.7722168-0.1704712,4.3100586-0.4995728  c0.5048828,0.336853,1.0778809,0.6000366,1.7158203,0.7510376c1.3564453,0.3217773,3.1425781,0.6303711,4.9975586,0.6303711  c0.9287109,0,1.8745117-0.0771484,2.7919922-0.269043c0.8798828-0.1841431,1.6599121-0.5751343,2.2906494-1.1065674  c1.5182495,0.3254395,2.9424438,0.4937744,4.2547607,0.4937744c0.9638672,0,1.8696289-0.0878906,2.7114258-0.2641602  c2.3071289-0.4829102,3.9194336-2.418457,3.8325195-4.6293945L66.0378418,70.675354  c0.4019165-0.293396,0.6762085-0.6107788,0.7976074-0.956604c0.2749023-0.78125-0.1362305-1.6376953-0.9179688-1.9121094  c-0.0147705-0.005249-0.0299072-0.0032959-0.0447388-0.0080566l-0.0662231-1.15448  c1.2259521-0.7120972,1.8792725-1.6230469,1.9229736-1.6856079C68.1928711,64.293457,68.0439453,63.3803711,67.3930664,62.8969727z   M46.3051758,63.7539062c0.2236328,0,0.4536133-0.0092773,0.6894531-0.0302734  c0.8251953-0.0717773,1.4355469-0.7993164,1.3632812-1.625c-0.0722656-0.8251953-0.8032227-1.4350586-1.625-1.3632812  c-0.7358398,0.0649414-1.3701172-0.0415039-1.875-0.1962891c1.1176758-1.9638672,1.5932617-4.4931641,1.6352539-5.628418  c0.000061-0.0014648-0.0003662-0.0029297-0.0003052-0.0043945c0.000061-0.0020142,0.0007324-0.0038452,0.0007935-0.0058594  l0.3295898-10.9174805c0.043457-1.1772461-0.0864258-2.2626953-0.3979492-3.3188477  c-0.4707031-1.5957031-1.5170898-3.9453125-2.5288086-6.2177734c-0.3950195-0.8867188-0.777832-1.7456055-1.1010742-2.5063477  c-0.5810547-1.3671875-0.7304688-2.355957-0.7211914-2.8481445c0.7734375,0.2348633,3.1728516,1.4350586,8.921875,7.4902344  c0.4897461,0.515625,1.0317383,0.8808594,1.5097656,1.203125c1.0249023,0.6904297,1.0117188,0.7387695,0.8857422,1.203125  c-0.0197754,0.0725098-0.0276489,0.1450195-0.0363159,0.2174683c-0.2173462,1.1160278-0.3322144,2.2302246-0.3318481,3.3411255  l0.2977295,7.4888916c0.0001831,0.0074463-0.0016479,0.0144043-0.0013428,0.0218506  c0.0006104,0.015564,0.0033569,0.0296021,0.0040283,0.045105l0.0062256,0.1570435  c0.0021362,0.0532227,0.0140381,0.1033325,0.0214844,0.1549072c0.1876831,2.4321289,1.2410889,4.1989746,2.1386719,5.2738037  c-0.4521484,0.2739258-1.0605469,0.5097656-1.8164062,0.5097656c-0.8286133,0-1.5,0.6713867-1.5,1.5s0.6713867,1.5,1.5,1.5  c0.0021362,0,0.0040894-0.0003052,0.0062256-0.0003052l0.4240112,10.7454224  c-1.2451782,0.0631714-2.6252441,0.1124268-4.1856079,0.1391602c-1.4829712,0.0262451-2.812561,0.0166016-4.0139771-0.0184937  l0.2558594-6.319397C46.2102661,63.7456055,46.2545776,63.7539062,46.3051758,63.7539062z M44.2207642,26.7791138  c-0.7259521-2.7431641-1.2215576-7.7130127-0.4317017-8.4573364c0.4267578,0.1289062,1.3432617,1.6499023,2.0126953,2.7607422  c1.0584106,1.7558594,2.3583374,3.9003906,4.3251343,6.0022583c-0.6816406,0.8358765-1.3444214,1.6987915-1.9753418,2.5587158  C46.5476685,28.2514648,45.2596436,27.3346558,44.2207642,26.7791138z M54.9960938,34.2949219  c-0.1898804,0.3999023-0.3621216,0.7998047-0.5247803,1.199585c-0.0999756-0.0693359-0.1978149-0.1361084-0.2891846-0.1976318  c-0.3842773-0.2587891-0.7475586-0.503418-1.0102539-0.7802734c-1.0128784-1.0667725-1.9391479-2.0004272-2.7970581-2.8301392  c2.861084-3.9139404,6.1744995-7.3464355,7.4386597-7.7123413C58.3007812,25.0356445,57.2373047,29.5732422,54.9960938,34.2949219z   M49.9467773,11.6010742c1.2972412,1.1104126,4.010376,4.0683594,5.6049194,10.250061  c-1.1090088,0.6893921-2.2798462,1.7275391-3.4455566,2.9622803c-1.6461182-1.814209-2.7913208-3.7139893-3.7350464-5.2792358  c-0.6477661-1.0752563-1.3052368-2.164978-2.0618286-2.9686279C46.7142944,15.6353149,47.8773193,13.2918091,49.9467773,11.6010742z   M37.6616211,54.6723633c0.8286133,0,1.5-0.6713867,1.5-1.5s-0.6713867-1.5-1.5-1.5  c-0.456543,0-0.8422852-0.0327148-1.1630859-0.0810547c0.7006836-1.222168,1.4555664-3.0395508,1.5444336-5.2910156  c0.0002441-0.0068359-0.0014038-0.0131836-0.0012207-0.0200195c0.0001831-0.0066528,0.0021362-0.0128174,0.0021973-0.0195312  l0.0449219-3.5092773c0-2.6181641-0.6494141-5.3134766-1.9296875-8.0107422  c-2.1655273-4.5625-3.2084961-8.9780273-2.7822266-10.0063477c0.3417969,0.1259766,1.2333984,0.6005859,2.9667969,2.3891602  c0.5771484,0.5947266,1.5253906,0.6088867,2.1210938,0.0332031c0.5947266-0.5766602,0.6098633-1.5263672,0.0332031-2.1210938  c-0.887207-0.9154053-1.8868408-1.8577881-2.9064331-2.510437c0.7116699-3.9169922,2.3115234-6.0930786,3.260437-7.0637817  c0.7595825,0.6113281,1.3986206,1.3163452,1.9805298,2.161438c-0.8623657,2.4003906-0.3292236,6.1343384,0.164978,8.5044556  c-0.2562256,0.0784302-0.4841309,0.1916504-0.6904297,0.3267822c-2.1899414,1.4370117-0.9199219,5.1357422-0.2724609,6.659668  c0.3291016,0.7749023,0.71875,1.6494141,1.1210938,2.5532227c0.9272461,2.081543,1.9775391,4.4404297,2.3920898,5.8457031  c0.2211914,0.7495117,0.309082,1.4995117,0.2768555,2.3691406l-0.329834,10.9204102  c-0.0447388,1.1923828-0.7603149,4.0866699-1.9138184,5.1474609c-0.3178711,0.2924805-0.4941406,0.7075195-0.4838867,1.1391602  s0.2060547,0.8383789,0.5371094,1.1152344c0.0440063,0.0371094,0.6096191,0.4882812,1.5501709,0.8950806l-0.2756348,6.8071289  c-2.9804688-0.237854-4.7999268-0.6552734-5.8844604-1.0154419l0.5933838-14.220459  C37.6333618,54.6704712,37.645874,54.6723633,37.6616211,54.6723633z M37.8745117,87.6689453  c-0.8945312-0.1870117-1.5224609-0.859375-1.4931641-1.6040039l0.2732544-7.6763306  c0.0579224,0.0015259,0.1126709,0.0078735,0.1715698,0.0078735c0.8286133,0,1.5-0.6713867,1.5-1.5s-0.6713867-1.5-1.5-1.5  c-0.730957,0-1.3193359-0.2285156-1.7553711-0.4926758c0.5479736-0.7045898,1.1494751-1.7070923,1.53479-3.0025024  c1.4146729,0.4130859,3.4035034,0.7848511,6.1819458,1.0004883l-0.5482788,13.5386353  c-0.0159912,0.4282837,0.046936,0.840271,0.1480713,1.2393188C40.9862061,87.888916,39.3565674,87.9803467,37.8745117,87.6689453z   M53.2124023,88.5498047c-2.2099609,0.4624023-4.7446289,0.0678711-6.4833984-0.34375  c-0.9067383-0.2148438-1.5200195-0.8945312-1.4921875-1.6489258l0.5464478-13.4991455  c0.7815552,0.0233765,1.5959473,0.0391846,2.4765015,0.0391846c0.5498047,0,1.1201172-0.0048828,1.7099609-0.0146484  c1.5308838-0.0262451,2.9465942-0.0753784,4.2719116-0.1422729c0.1916504,2.3519287,1.1368408,4.0499268,1.9556274,5.0929565  c-0.4555664,0.2832031-1.0761719,0.5322266-1.8525391,0.5322266c-0.8286133,0-1.5,0.6713867-1.5,1.5s0.6713867,1.5,1.5,1.5  c0.074646,0,0.1442871-0.0075684,0.2173462-0.0100098l0.2098999,5.3190918  C54.8027344,87.6499023,54.1464844,88.3544922,53.2124023,88.5498047z M63.9194336,86.125  c0.0283203,0.7148438-0.5820312,1.3662109-1.4501953,1.5478516c-1.5703125,0.3292236-3.3128662,0.1998901-4.7583618-0.0404053  c0.0474243-0.2860107,0.0708008-0.578186,0.0591431-0.8760986l-0.2382202-6.0360107  c1.296814-0.7380981,1.9862061-1.7015381,2.0316772-1.7667236c0.4628906-0.6650391,0.3144531-1.5776367-0.3359375-2.0615234  c-0.0182495-0.0136108-1.7393188-1.3948975-1.9848633-4.1518555c2.392395-0.2050781,4.3514404-0.4946899,5.8587036-0.8707886  L63.9194336,86.125z M62.9269409,68.829834c-1.0333862,0.295105-2.8168335,0.6506958-5.828125,0.9121704l-0.4450073-11.2771606  c1.4302368-0.7484741,2.190979-1.8098755,2.2387695-1.878418c0.4628906-0.6650391,0.3037109-1.5849609-0.3461914-2.0688477  c-0.0861206-0.0637817-2.0963135-1.5956421-2.2251587-4.550415l-0.2987671-7.4798584  c0-2.2607422,0.5507812-4.5195312,1.6835938-6.90625c1.6938477-3.5673828,5.2407227-12.1015625,1.6005859-14.2802734  c-0.2757568-0.1653442-0.5735474-0.2472534-0.8807983-0.2914429c-0.059021-0.2262573-0.1159668-0.4578247-0.1777954-0.6766357  c0.6112671-0.7260132,1.829834-2.0419922,3.4321289-3.0773315c0.8031616,1.1742554,2.1025391,3.5834351,2.7677612,7.4039307  c-1.0023804,0.6431274-1.9840088,1.5691528-2.8561401,2.4691162c-0.5766602,0.5947266-0.5615234,1.5444336,0.0332031,2.1210938  c0.5952148,0.5766602,1.5439453,0.5620117,2.1210938-0.0332031c1.6381836-1.6904297,2.5097656-2.1845703,2.8691406-2.3291016  c0.3896484,1.1254883-0.6396484,5.3999023-2.7260742,9.7954102c-1.2797852,2.6953125-1.6499023,4.2250977-1.6499023,6.8442383  l0.2358398,15.1831055c0.0001221,0.0061646,0.0018921,0.0117798,0.0020752,0.0178833  c0.0001831,0.0060425-0.0013428,0.0117188-0.0010986,0.0177612c0.0966797,2.449707,1.0532227,4.2036133,1.8842773,5.2783203  c-0.4243164,0.2529297-0.9907227,0.4682617-1.6914062,0.4682617c-0.8286133,0-1.5,0.6713867-1.5,1.5s0.6713867,1.5,1.5,1.5  c0.0620728,0,0.119812-0.0066528,0.1807861-0.0083618L62.9269409,68.829834z"/><text x="0" y="115" fill="#000000" font-size="5px" font-weight="bold" font-family="'Helvetica Neue', Helvetica, Arial-Unicode, Arial, Sans-serif">Created by Artem  Kovyazin</text><text x="0" y="120" fill="#000000" font-size="5px" font-weight="bold" font-family="'Helvetica Neue', Helvetica, Arial-Unicode, Arial, Sans-serif">from the Noun Project</text></svg>