<svg xmlns="http://www.w3.org/2000/svg" xmlns:xlink="http://www.w3.org/1999/xlink" version="1.1" x="0px" y="0px" viewBox="0 0 100 125" style="enable-background:new 0 0 100 100;" xml:space="preserve"><g><path d="M50.5898438,49.987793c-2.9345703-1.4326172-5.4755859-0.7011719-7.71875-0.0541992   c-2.2236328,0.6416016-4.1445312,1.1923828-6.6123047-0.0102539c-2.3867188-1.1635742-2.9355469-2.894043-3.5712891-4.8974609   c-0.6630859-2.0888672-1.4150391-4.4570312-4.3125-5.8701172c-4.6503906-2.2661133-10.8417969-2.1816406-14.2753906,4.8583984   c-4.2851562,8.7895508,1.1035156,18.175293,14.0625,24.4946289c4.5888672,2.2373047,8.9599609,3.3310547,12.8447266,3.3310547   c6.1972656,0,11.15625-2.7861328,13.7763672-8.1582031c1.3896484-2.8496094,1.8671875-5.140625,1.5048828-7.2099609   C55.8173828,53.7832031,53.9003906,51.6015625,50.5898438,49.987793z M52.0859375,62.3671875   c-3.4619141,7.0996094-12.3339844,8.4541016-22.609375,3.4443359C18.0097656,60.2197266,13.2695312,52.5625,16.796875,45.3286133   c3.0136719-6.1835938,8.1826172-4.4907227,10.2636719-3.4765625c1.7412109,0.8496094,2.171875,2.2050781,2.7675781,4.081543   c0.7011719,2.2094727,1.5732422,4.9594727,5.1162109,6.6865234c3.5068359,1.7109375,6.296875,0.90625,8.7578125,0.1962891   c2.0517578-0.5927734,3.671875-1.0595703,5.5732422-0.1318359c2.4306641,1.1845703,3.7578125,2.5927734,4.0576172,4.3046875   C53.5810547,58.4052734,53.1855469,60.1142578,52.0859375,62.3671875z"/><path d="M26.4296875,44.9980469c-1.6894531-0.8242188-3.2441406-0.9863281-4.6230469-0.4804688   c-1.8046875,0.6621094-2.5322266,2.2197266-2.6083984,2.3950195c-0.3330078,0.7587891,0.0117188,1.6435547,0.7705078,1.9765625   c0.1962891,0.0859375,0.4003906,0.1269531,0.6015625,0.1269531c0.5771484,0,1.1279297-0.3354492,1.3740234-0.8974609   c0.0029297-0.0053711,0.2880859-0.5620117,0.8964844-0.784668c0.7216797-0.2670898,1.6357422,0.0488281,2.2744141,0.3603516   c0.7451172,0.3623047,1.6425781,0.0541992,2.0058594-0.690918C27.4833984,46.2587891,27.1748047,45.3608398,26.4296875,44.9980469z   "/><path d="M83.5898438,39.5546875c-3.4335938-5.6689453-7.6474609-9.6044922-12.1865234-11.3808594   c-4.3583984-1.706543-8.9052734-1.3461914-12.8046875,1.0166016c-2.7109375,1.6425781-4.3544922,3.309082-5.1708984,5.2456055   c-1.0605469,2.5146484-0.6298828,5.3867188,1.2773438,8.5371094c1.6933594,2.7954102,4.2255859,3.5561523,6.4589844,4.2265625   c2.2158203,0.6655273,4.1289062,1.2402344,5.5527344,3.590332c1.375,2.2714844,0.8994141,4.0224609,0.3486328,6.0507812   c-0.5742188,2.1152344-1.2255859,4.5136719,0.4453125,7.2714844c1.8251953,3.0107422,4.8398438,5.4921875,8.6904297,5.4921875   c1.8076172,0,3.7998047-0.546875,5.9394531-1.8427734c4.2333984-2.5644531,6.5458984-6.6513672,6.6884766-11.8203125   C88.9619141,51.0996094,87.1503906,45.4331055,83.5898438,39.5546875z M80.5859375,65.1953125   c-5.8818359,3.5625-9.3095703-0.6582031-10.5097656-2.6376953c-1.0039062-1.6582031-0.6318359-3.0302734-0.1152344-4.9306641   c0.6074219-2.2363281,1.3632812-5.0205078-0.6777344-8.3911133c-2.0214844-3.3369141-4.9238281-4.2084961-7.2558594-4.9091797   c-2.0449219-0.6142578-3.6601562-1.0991211-4.7558594-2.9077148c-1.4013672-2.3134766-1.7539062-4.2163086-1.0791016-5.8173828   c0.5585938-1.324707,1.8164062-2.5463867,3.9609375-3.8447266c1.8164062-1.1005859,3.7636719-1.6538086,5.7666016-1.6538086   c1.4433594,0,2.9160156,0.2875977,4.3896484,0.8642578c3.9199219,1.534668,7.625,5.0415039,10.7138672,10.1420898   c3.2617188,5.3842773,4.9238281,10.484375,4.8066406,14.7490234C85.7158203,60.015625,83.9511719,63.1572266,80.5859375,65.1953125   z"/><path d="M68.0693359,35.1826172c-1.609375-0.9741211-3.1425781-1.2729492-4.5605469-0.8959961   c-1.8574219,0.4970703-2.7216797,1.9829102-2.8144531,2.1508789c-0.3945312,0.715332-0.1357422,1.6005859,0.5712891,2.0092773   c0.2324219,0.1342773,0.4873047,0.1977539,0.7392578,0.1977539c0.5146484,0,1.0195312-0.265625,1.3027344-0.7348633   c0.0029297-0.0043945,0.2587891-0.4208984,0.7402344-0.6401367c0.6318359-0.2880859,1.4658203-0.1269531,2.46875,0.4794922   c0.7089844,0.4291992,1.6308594,0.2026367,2.0595703-0.5068359C69.0048828,36.5332031,68.7783203,35.6113281,68.0693359,35.1826172   z"/></g><text x="0" y="115" fill="#000000" font-size="5px" font-weight="bold" font-family="'Helvetica Neue', Helvetica, Arial-Unicode, Arial, Sans-serif">Created by Artem  Kovyazin</text><text x="0" y="120" fill="#000000" font-size="5px" font-weight="bold" font-family="'Helvetica Neue', Helvetica, Arial-Unicode, Arial, Sans-serif">from the Noun Project</text></svg>