<svg xmlns="http://www.w3.org/2000/svg" xmlns:xlink="http://www.w3.org/1999/xlink" version="1.1" x="0px" y="0px" viewBox="0 0 100 125" style="enable-background:new 0 0 100 100;" xml:space="preserve"><path d="M78.8,28.6c-0.1-0.1-0.2-0.3-0.4-0.4c-0.1-0.1-3.5-2.5-7.3-1.7c-0.1,0-0.1,0-0.2,0.1c-4.3-4.3-9.8-7.1-15.7-8.1  c-0.1,0-0.1,0-0.2,0c-1.1-0.2-2.2-0.3-3.3-0.4c-9.9-0.6-19.3,3.8-25.3,11.7c-1.7-0.7-3.5-0.8-4.8-0.7c-0.5,0-0.9,0.3-1.1,0.7  c-2.9,4.8-4.6,10.2-4.9,15.8c-0.5,9.2,2.6,18,8.7,24.9c6.1,6.9,14.6,10.9,23.8,11.5c0.7,0,1.3,0.1,2,0.1c2.5,0,5-0.3,7.4-0.8  c0.1,0,0.2,0,0.2-0.1c14.6-3.3,25.9-15.9,26.8-31.6C84.9,42.1,82.9,34.8,78.8,28.6z M44.8,39.8c0-0.1,0-0.1,0-0.2  c-0.6-2-0.6-3.7,0.2-5.1c1.3-2.3,4.4-3.1,4.4-3.1c0.8-0.2,1.3-1,1.1-1.8c-1.2-5.6,3.1-7.7,4.5-8.2c4.9,0.9,9.4,3.2,13.1,6.5  c-0.8,0.6-1.5,1.4-2.2,2.4c-2.9-0.3-7.5,0.6-9.4,5.8c-2.8-0.3-6.9,0.5-9.1,4.8C46.5,40.4,45.6,40,44.8,39.8z M50.1,21  c-1.8,1.7-3.2,4.3-2.8,8c-1.4,0.6-3.6,1.8-4.9,4.1c-1,1.7-1.3,3.8-0.8,6c-0.9-1.7-2.1-3-3.8-3.8c-2.4-1.1-4.9-1-6.6-0.7  c-0.5-1.4-1.2-2.5-2.2-3.3C34.1,24.7,41.8,21,50.1,21z M81.4,49.4c-0.5,9.5-5.3,17.7-12.3,23.1c2.2-2.9,3.7-6.5,3.5-10.9  c0-0.2,0-0.4-0.1-0.7c0-0.1,0-0.2,0-0.3c-0.4-4.5-1.8-7.4-2.8-9.6c-1.5-3.3-2.2-4.6,1.3-8.9c0.5-0.6,0.4-1.6-0.2-2.1  c-0.7-0.5-1.6-0.4-2.1,0.2c-4.4,5.5-3.5,8.2-1.6,12.1c0.5,1.1,1.1,2.4,1.6,3.9c-0.2-0.1-0.3-0.2-0.5-0.2c-1.9-0.7-4.1-0.5-6.4,0.8  c-0.7,0.4-1,1.3-0.6,2c0.4,0.7,1.3,1,2,0.6c1.5-0.8,2.8-1,3.9-0.6c1.5,0.5,2.3,2,2.5,2.5c0,0.2,0,0.3,0,0.5  c0.6,10.1-11.1,15.7-12.8,16.5c-2.8,0.6-5.7,0.9-8.6,0.7c-2.4-0.1-4.7-0.5-7-1.2c-0.9-0.4-9.8-4.8-8.4-15.3c0,0,0,0,0,0c0,0,0,0,0,0  c0-0.2,0.7-5.9,5.4-5.6c0.8,0,1.5-0.6,1.6-1.4c0-0.8-0.6-1.5-1.4-1.6c-2.5-0.1-4.3,0.7-5.6,2c-1.4-7.6-7.2-9-7.3-9  c-0.8-0.2-1.6,0.3-1.8,1.1c-0.2,0.8,0.3,1.6,1.1,1.8c0.3,0.1,6.5,1.7,5.1,12.4c0,0,0,0,0,0c0,0,0,0,0,0c0,0,0,0,0,0  c-0.6,4.8,0.6,8.6,2.3,11.4c-2.1-1.4-4-3.1-5.7-5c-5.6-6.3-8.4-14.3-7.9-22.7c0.3-4.8,1.7-9.6,4.1-13.8c1.6,0,5.3,0.5,5.9,4.6  c0.1,0.4,0.3,0.8,0.7,1.1c0.4,0.2,0.9,0.3,1.3,0.1c0,0,3.3-1.1,5.9,0.1c1.3,0.6,2.3,1.8,2.9,3.5c0.2,0.7,0.9,1.1,1.6,1  c0,0,3.1-0.4,5.1,1.3c1.1,1,1.7,2.6,1.7,4.7c0,0.8,0.7,1.5,1.5,1.5c0,0,2.2,0.1,3.5,1.6c1,1.1,1.4,2.8,1.1,5  c-0.1,0.8,0.5,1.6,1.3,1.7c0.8,0.1,1.6-0.5,1.7-1.3c0.3-3.1-0.3-5.5-1.8-7.3c-1.3-1.5-3.1-2.2-4.3-2.4c-0.1-1.4-0.5-2.7-1.1-3.7  c1.9-5.3,7-4.2,7.6-4c0.4,0.1,0.8,0,1.2-0.2c0.3-0.2,0.6-0.5,0.7-0.9c1.5-5.9,6.7-4.9,7.3-4.7c0.6,0.2,1.3-0.1,1.7-0.7  c1.1-1.9,2.4-3,3.9-3.3c2.1-0.5,4.1,0.6,4.8,1C80.1,36.1,81.8,42.6,81.4,49.4z"/><text x="0" y="115" fill="#000000" font-size="5px" font-weight="bold" font-family="'Helvetica Neue', Helvetica, Arial-Unicode, Arial, Sans-serif">Created by Artem  Kovyazin</text><text x="0" y="120" fill="#000000" font-size="5px" font-weight="bold" font-family="'Helvetica Neue', Helvetica, Arial-Unicode, Arial, Sans-serif">from the Noun Project</text></svg>