<svg xmlns="http://www.w3.org/2000/svg" xmlns:xlink="http://www.w3.org/1999/xlink" version="1.1" x="0px" y="0px" viewBox="0 0 100 125" style="enable-background:new 0 0 100 100;" xml:space="preserve"><path d="M59.2,82.3c3.4-8.2,6.2-20.4,7.2-29.6l0,0c0.6-5.9,0.4-10.6-1-12.6c-1.5-2.2-3.8-3.6-6.2-4.6l4.2-18.7  c0.2-1.1-0.2-2.3-1.2-2.9c-1.3-0.8-3.5-1.5-5.8-1.7c-0.1,0-0.2,0-0.3,0l0.6-4.8c0.1-1.1-0.4-2.2-1.4-2.8c-1.3-0.7-3.7-1.1-6-1.1  s-4.6,0.5-6,1.1c-1,0.5-1.6,1.6-1.4,2.8l0.6,4.8c-0.1,0-0.2,0-0.3,0c-2.3,0.2-4.6,0.9-5.8,1.7c-0.9,0.6-1.4,1.8-1.2,2.9l4.2,18.7  c-2.4,1-4.6,2.4-6.2,4.6c-2,2.8-1.5,11.8,0.4,21.4c0,0.1,0,0.1,0,0.2c1.7,8.8,4.6,18.2,7.6,24c2.7,5.2,5.3,7.7,8.2,7.7  s5.5-2.5,8.2-7.7C58.1,84.7,58.7,83.5,59.2,82.3L59.2,82.3L59.2,82.3z M56,15.2c1.9,0.2,3.5,0.7,4.3,1.2l-4.1,18.2  c-1-0.3-2-0.5-2.9-0.6l2.3-18.8C55.8,15.2,55.9,15.2,56,15.2z M49.2,6.5c1.9,0,3.6,0.4,4.4,0.7l-3.2,26.4c-0.7,0-1.1,0-1.2,0  c-0.1,0-0.5,0-1.2,0L44.7,7.2C45.6,6.9,47.3,6.5,49.2,6.5z M37.9,16.4c0.8-0.5,2.5-1,4.3-1.2c0.1,0,0.3,0,0.4,0L44.9,34  C44,34.1,43,34.3,42,34.6L37.9,16.4z M49.2,90.5c-0.7,0-2.7-0.6-5.5-6.1c-2.2-4.3-4.1-9.7-5.5-15.3c1.5-0.5,3-0.9,4.4-1.2  c0.8-0.2,1.3-0.9,1.2-1.8c-0.2-0.8-0.9-1.3-1.8-1.2c-1.5,0.3-3.1,0.7-4.6,1.2c-0.3-1.3-0.6-2.6-0.8-3.9c1.4-0.5,4.1-1.4,7.3-1.9  c0.8-0.1,1.4-0.9,1.3-1.7c-0.1-0.8-0.9-1.4-1.7-1.3c-3.2,0.5-5.8,1.3-7.4,1.9c-1.5-8.5-1.8-15.7-0.6-17.5c3.7-5.2,13.7-5.3,13.8-5.3  s10,0.1,13.8,5.3c0.8,1.1,0.9,4.2,0.6,8.5c-1.7-0.6-4.4-1.2-8.3-1.5c-0.9,0-1.5,0.6-1.6,1.4c0,0.8,0.6,1.5,1.4,1.6  c4.3,0.3,7,1.1,8.2,1.6c-0.1,1-0.2,2-0.4,3c-1-0.3-2.3-0.7-4-1c-0.8-0.1-1.6,0.4-1.7,1.2c-0.1,0.8,0.4,1.6,1.2,1.7  c2,0.4,3.3,0.8,4.1,1.1C61.4,66,59.5,73.5,57,79.6c-1.1-0.3-2.9-0.6-5.3-0.6c-0.8,0-1.5,0.7-1.5,1.5s0.7,1.5,1.5,1.5  c1.9,0,3.2,0.2,4.1,0.4c-0.3,0.6-0.6,1.3-0.9,1.8C51.9,89.9,49.9,90.5,49.2,90.5z"/><text x="0" y="115" fill="#000000" font-size="5px" font-weight="bold" font-family="'Helvetica Neue', Helvetica, Arial-Unicode, Arial, Sans-serif">Created by Artem  Kovyazin</text><text x="0" y="120" fill="#000000" font-size="5px" font-weight="bold" font-family="'Helvetica Neue', Helvetica, Arial-Unicode, Arial, Sans-serif">from the Noun Project</text></svg>