<svg xmlns="http://www.w3.org/2000/svg" xmlns:xlink="http://www.w3.org/1999/xlink" version="1.1" x="0px" y="0px" viewBox="0 0 100 125" style="enable-background:new 0 0 100 100;" xml:space="preserve"><g><path d="M74.1,34c0-0.2,0-0.4,0-0.6c0-6.1-5-11.1-11.1-11.1c-0.5,0-1,0-1.6,0.1c0,0-0.1,0-0.1,0c-2.7-3.3-6.7-5.4-11.3-5.4   c-5.8,0-10.9,3.5-13.1,8.4c-0.1,0-0.1,0-0.2,0c-7.2,0.2-13.1,6-13.4,13.2c0,0.2,0,0.3,0.1,0.4c-3.3,2.4-5.4,6.2-5.4,10.4   c0,7.1,5.8,12.9,12.9,12.9c3.1,0,6.1-1.1,8.5-3.2c2.1,4,3.7,10,3.6,18.8c0,1.3,0.5,2.5,1.4,3.5c0.9,0.9,2.1,1.4,3.4,1.4h4.9   c1.3,0,2.5-0.5,3.4-1.4c0.9-0.9,1.4-2.2,1.4-3.5c-0.2-8.1,1.2-13.8,3-17.8c2.1,1,4.3,1.6,6.7,1.6c8.2,0,14.8-6.6,14.8-14.8   C82,41.6,79,36.6,74.1,34z M67.2,58.9c-1.8,0-3.6-0.4-5.2-1.2c2-3.1,4.3-4.8,6.1-5.7c0.7-0.4,1-1.3,0.7-2c-0.4-0.7-1.3-1-2-0.7   c-1.1,0.6-2.4,1.4-3.8,2.6c-0.2-2.8-1.3-5.9-4.5-8.5c-0.6-0.5-1.6-0.4-2.1,0.2c-0.5,0.6-0.4,1.6,0.2,2.1c5.8,4.8,2.5,10.9,2.4,11.2   v0c-2.6,4.5-4.7,11.2-4.5,21.3c0,0.5-0.2,1-0.5,1.3c-0.3,0.3-0.8,0.5-1.3,0.5h-4.9c-0.5,0-0.9-0.2-1.3-0.5   c-0.3-0.4-0.5-0.8-0.5-1.3c0-1.1,0-2.1,0-3.1c0,0,0,0,0,0c0-0.1-0.2-5.2,3.8-9.5c0.6-0.6,0.5-1.6-0.1-2.1c-0.6-0.6-1.6-0.5-2.1,0.1   c-1,1.1-1.8,2.3-2.5,3.4c-1.1-5.7-3.1-9.8-5.3-12.5c-0.3-0.5-0.4-1.1-0.4-1.7c0-1.6,1-3.1,2.5-3.7c0.8-0.3,1.2-1.2,0.9-1.9   c-0.3-0.8-1.2-1.2-1.9-0.9c-2.2,0.8-3.8,2.7-4.3,5c-1-0.8-2-1.4-2.8-1.8c-0.7-0.4-1.6-0.1-2,0.7c-0.4,0.7-0.1,1.6,0.7,2   c1.4,0.7,3.2,1.9,4.9,4c0.2,0.3,0.3,0.5,0.5,0.8c0,0-0.1,0-0.1,0.1c-1.8,1.7-4.2,2.6-6.7,2.6c-5.5,0-9.9-4.4-9.9-9.9   c0-5.2,4.1-9.5,9.3-9.9c0.8-0.1,1.5-0.8,1.4-1.6c-0.1-0.8-0.8-1.5-1.6-1.4c-1.3,0.1-2.5,0.3-3.6,0.8c0.8-4.7,4.7-8.4,9.5-8.9   c-0.2,1-0.3,1.9-0.3,3c0,1.7,0.3,3.4,0.9,5.1c0.2,0.6,0.8,1,1.4,1c0.2,0,0.4,0,0.5-0.1c0.8-0.3,1.2-1.2,0.9-1.9   c-0.5-1.3-0.7-2.6-0.7-4c0-6.3,5.1-11.5,11.5-11.5c6.3,0,11.5,5.1,11.5,11.5c0,0.8,0.7,1.5,1.5,1.5s1.5-0.7,1.5-1.5   c0-2.2-0.5-4.3-1.4-6.2c4.4,0.1,8,3.7,8,8.1c0,1.3-0.3,2.6-0.9,3.8c-0.4,0.7-0.1,1.6,0.6,2c0.2,0.1,0.5,0.2,0.7,0.2   c0.5,0,1.1-0.3,1.3-0.8c0.2-0.5,0.4-0.9,0.6-1.4c3.4,2.2,5.5,5.9,5.5,10C79,53.6,73.7,58.9,67.2,58.9z"/><path d="M56.8,33.1c-1.7-0.7-3.7-0.5-5.3,0.4c-1.5,0.9-2.5,2.4-2.8,4.1c-0.1,0.8,0.4,1.6,1.2,1.7c0.1,0,0.2,0,0.2,0   c0.7,0,1.4-0.5,1.5-1.3c0.1-0.8,0.6-1.6,1.4-2c0.8-0.5,1.8-0.6,2.6-0.2c0.8,0.3,1.6-0.1,2-0.8C57.9,34.3,57.6,33.4,56.8,33.1z"/></g><text x="0" y="115" fill="#000000" font-size="5px" font-weight="bold" font-family="'Helvetica Neue', Helvetica, Arial-Unicode, Arial, Sans-serif">Created by Artem  Kovyazin</text><text x="0" y="120" fill="#000000" font-size="5px" font-weight="bold" font-family="'Helvetica Neue', Helvetica, Arial-Unicode, Arial, Sans-serif">from the Noun Project</text></svg>