<svg xmlns="http://www.w3.org/2000/svg" xmlns:xlink="http://www.w3.org/1999/xlink" version="1.1" x="0px" y="0px" viewBox="0 0 100 125" style="enable-background:new 0 0 100 100;" xml:space="preserve"><g><path d="M27.1,58.2c-2.1-0.4-6.4,0-7.7,4.4c-0.2,0.8,0.2,1.6,1,1.9c0.1,0,0.3,0.1,0.4,0.1c0.6,0,1.2-0.4,1.4-1.1   c0.9-2.9,3.9-2.4,4.3-2.4c0.8,0.1,1.6-0.4,1.7-1.2C28.4,59.1,27.9,58.3,27.1,58.2z"/><path d="M86.2,63c-1-4.3-2.9-7.4-5.8-8.9c-3.8-2.1-8.3-1.1-10.6-0.2c-3-12.7-9.7-20.2-14.4-24.1c2.5-0.1,4.7-0.8,6.6-2   c4.4-2.8,5.4-7.7,5.4-7.9c0.2-0.8-0.3-1.6-1.1-1.7c-8.9-2.2-14,2.8-16.4,6.2c-2.6-4.1-8.8-11.1-20.4-8.2c-0.8,0.2-1.3,1-1.1,1.7   c0,0.2,1.2,6.1,6.6,9.5c2.5,1.6,5.5,2.4,9,2.4c0.1,0,0.2,0,0.3,0c-10.7,8.8-13.8,20.4-14.5,24c-2.4-0.8-6.6-1.7-10.3,0.4   c-2.9,1.6-4.8,4.6-5.8,8.9c-1.3,5.7-0.5,10.8,2.2,14.6c2.6,3.7,6.9,6.2,11.8,6.9c0.8,0.1,1.7,0.2,2.5,0.2c4,0,7.8-1.3,10.7-3.7   c3.6-3,5.7-7.7,5.9-13.5c0.2-4.5-0.9-7.9-3.3-10.2c-3.2-3.1-7.8-3.2-10.2-3c-0.2,0-0.3,0-0.5,0c0.7-3.6,4.3-16.6,17.1-24.9   c2.8,1.7,13.1,9,16.9,24.9c0,0-0.1,0-0.1,0c-2.5-0.2-7.1,0-10.2,3c-2.4,2.3-3.5,5.7-3.3,10.2c0.3,5.8,2.3,10.5,5.9,13.5   c2.9,2.4,6.7,3.7,10.7,3.7c0.8,0,1.7-0.1,2.5-0.2c4.9-0.7,9.2-3.2,11.8-6.9C86.8,73.7,87.5,68.7,86.2,63z M33.6,57.2   c2-0.2,5.6-0.1,7.9,2.2c1.7,1.7,2.5,4.3,2.3,7.9c-0.2,5-1.9,8.9-4.9,11.4c-2.8,2.4-6.8,3.4-10.9,2.9c-4.1-0.5-7.6-2.6-9.7-5.6   c-2.2-3.2-2.8-7.3-1.7-12.3c0.8-3.5,2.2-5.8,4.3-7c1.2-0.6,2.5-0.9,3.7-0.9c1.8,0,3.4,0.5,4.5,0.8h0C30.6,57.1,32.1,57.3,33.6,57.2   z M64.1,20.7c-0.5,1.3-1.6,3.2-3.7,4.5c-2.2,1.4-5,1.8-8.3,1.3C53.6,24,57.2,19.7,64.1,20.7z M36.8,24.8c-2.8-1.8-4.2-4.5-4.8-6.2   c9.4-1.6,14.2,4.7,15.9,7.8C43.4,27.1,39.6,26.6,36.8,24.8z M81.6,75.9c-2.1,3-5.6,5.1-9.7,5.6c-4.1,0.5-8-0.5-10.9-2.9   c-3-2.5-4.6-6.3-4.9-11.4c-0.2-3.6,0.6-6.2,2.3-7.9c1.9-1.8,4.7-2.2,6.7-2.2c0.4,0,0.9,0,1.2,0c1.5,0.1,2.9-0.1,4.3-0.6   c1.9-0.7,5.4-1.5,8.2,0c2.1,1.2,3.6,3.5,4.3,7C84.4,68.6,83.8,72.7,81.6,75.9z"/><path d="M72.9,58.2c-0.8,0.2-1.4,0.9-1.2,1.7s0.9,1.4,1.7,1.2c0.1,0,3.4-0.6,4.3,2.4c0.2,0.6,0.8,1.1,1.4,1.1c0.1,0,0.3,0,0.4-0.1   c0.8-0.2,1.2-1.1,1-1.9C79.3,58.2,75,57.8,72.9,58.2z"/></g><text x="0" y="115" fill="#000000" font-size="5px" font-weight="bold" font-family="'Helvetica Neue', Helvetica, Arial-Unicode, Arial, Sans-serif">Created by Artem  Kovyazin</text><text x="0" y="120" fill="#000000" font-size="5px" font-weight="bold" font-family="'Helvetica Neue', Helvetica, Arial-Unicode, Arial, Sans-serif">from the Noun Project</text></svg>