<svg xmlns="http://www.w3.org/2000/svg" xmlns:xlink="http://www.w3.org/1999/xlink" version="1.1" x="0px" y="0px" viewBox="0 0 100 125" style="enable-background:new 0 0 100 100;" xml:space="preserve"><g><path d="M81.3,37.4C81.3,37.4,81.3,37.4,81.3,37.4c1.1-4.5,0.2-9.1-2.5-12.8c-0.3-0.4-0.7-0.8-1-1.2l0,0c0.6-0.6,0.5-1.5-0.1-2.1   c-0.6-0.6-1.5-0.5-2.1,0.1l-0.1,0.1c-2.4-1.8-5.3-2.8-8.4-3c-2.9-0.1-5.6,0.5-8,1.8l-0.3-0.4c-0.5-0.7-1.4-0.8-2.1-0.4   s-0.8,1.4-0.4,2.1l0.3,0.4c-2.5,2.1-4.4,5-5.2,8.3c-0.2,1.1-0.5,2.1-0.9,3.3l-0.1,0c-0.8-0.3-1.6,0.2-1.9,0.9   c-0.3,0.8,0.2,1.6,0.9,1.9l0.1,0c-1.3,3.5-3.2,7.1-5.8,10.6l-0.2-0.1c-0.7-0.4-1.6-0.2-2.1,0.5c-0.4,0.6-0.2,1.4,0.3,1.9   c-2.5,2.9-5.6,5.8-9.4,8.3c-0.4-0.7-1.3-0.9-2-0.5c-0.7,0.4-1,1.3-0.6,2l0,0c-1.7,1-3.5,1.9-5.5,2.8c-1.9,0.8-3.4,2.2-4.5,3.8   c-0.7-0.3-1.5,0-1.9,0.7c-0.4,0.7-0.1,1.6,0.6,2c-0.7,2.2-0.6,4.6,0.3,6.8c0.3,0.8,0.7,1.5,1.2,2.2c-0.5,0.5-0.5,1.3-0.1,1.9   c0.3,0.4,0.7,0.6,1.2,0.6c0.3,0,0.6-0.1,0.9-0.3l0.1,0c1.8,1.4,4,2.2,6.3,2.2c0.7,0,1.5-0.1,2.3-0.2c1.1-0.2,2.3-0.5,3.6-0.9   c0.3,0.5,0.8,0.9,1.3,0.9c0.1,0,0.2,0,0.4,0c0.7-0.2,1.2-0.9,1.1-1.6c3.9-1.2,8.4-2.9,13.1-5.2l0.3,0.5c0.3,0.5,0.8,0.7,1.3,0.7   c0.3,0,0.5-0.1,0.8-0.2c0.7-0.4,1-1.3,0.5-2.1l-0.2-0.4c4.2-2.3,8.4-5.2,12.4-8.8l0.4,0.4c0.3,0.3,0.7,0.4,1,0.4   c0.4,0,0.8-0.2,1.1-0.5c0.6-0.6,0.5-1.6-0.1-2.1l-0.3-0.3c2.9-2.9,5.6-6.3,7.9-10.1c0.2,0.1,0.3,0.1,0.5,0.1c0.6,0,1.1-0.3,1.4-0.9   c0.3-0.6,0.1-1.3-0.4-1.7c1.5-2.9,2.8-5.9,3.9-9.3l0.2,0c0,0,0.1,0,0.1,0c0.8,0,1.4-0.6,1.5-1.4C82.3,38.2,81.9,37.6,81.3,37.4z    M30,78.5c-3.5,0.8-7-1.1-8.4-4.4c-0.8-1.9-0.7-3.9,0.1-5.7c0,0,0,0,0,0c0,0,0,0,0,0c0.7-1.6,2-3,3.8-3.7   c19.2-8.4,26.2-23,28.8-33.8c1.4-5.8,6.7-9.8,12.6-9.5c3.7,0.2,7.2,2,9.4,5c2.2,3,3,6.7,2,10.3C75.2,49,64.8,70.8,30,78.5z"/><path d="M62.1,28.4C62.1,28.4,62.1,28.4,62.1,28.4c-1.1,0-3.2,0.6-3.7,2.8c-0.2,0.8,0.3,1.6,1.1,1.8c0.1,0,0.2,0,0.3,0   c0.7,0,1.3-0.5,1.5-1.2c0.1-0.4,0.6-0.5,0.8-0.5c0.8,0,1.5-0.7,1.5-1.5C63.6,29.1,63,28.4,62.1,28.4z"/><path d="M70.3,30.1c0.4,0,0.6,0.6,0.6,0.7c0.1,0.7,0.8,1.3,1.5,1.3c0.1,0,0.1,0,0.2,0c0.8-0.1,1.4-0.9,1.3-1.7   c-0.2-1-1.1-3.1-3.4-3.2c-0.8-0.1-1.5,0.6-1.6,1.4C68.8,29.3,69.5,30,70.3,30.1z"/><path d="M60.9,55.2c-0.4,0-0.7-0.4-0.7-0.6c-0.3-0.8-1.1-1.2-1.9-0.9c-0.8,0.3-1.2,1.1-0.9,1.9c0.3,0.9,1.5,2.6,3.5,2.6   c0.1,0,0.3,0,0.5,0c0.8-0.1,1.4-0.8,1.3-1.7C62.4,55.7,61.7,55.1,60.9,55.2z"/><path d="M42.6,67.9c-0.4,0-0.6-0.6-0.6-0.7c-0.1-0.8-0.9-1.4-1.7-1.3c-0.8,0.1-1.4,0.9-1.3,1.7c0.1,1,1,3.1,3.3,3.3   c0,0,0.1,0,0.1,0c0.8,0,1.4-0.6,1.5-1.4C44.1,68.6,43.5,67.9,42.6,67.9z"/><path d="M49.1,56.7c-0.4,0-0.7-0.4-0.7-0.6c-0.3-0.8-1.1-1.2-1.9-0.9c-0.8,0.3-1.2,1.1-0.9,1.9c0.3,0.9,1.5,2.6,3.5,2.6   c0.1,0,0.3,0,0.5,0c0.8-0.1,1.4-0.8,1.3-1.7C50.7,57.2,49.9,56.6,49.1,56.7z"/><path d="M30.7,70.3c-0.4-0.1-0.5-0.7-0.5-0.8c0-0.8-0.6-1.5-1.4-1.6c-0.8,0-1.5,0.6-1.6,1.4c-0.1,1.1,0.4,3.2,2.6,3.9   c0.1,0,0.3,0.1,0.4,0.1c0.6,0,1.2-0.4,1.4-1.1C32,71.3,31.5,70.5,30.7,70.3z"/><path d="M58.6,45.7c-0.1-0.8-0.8-1.4-1.6-1.3c-0.5,0.1-0.7-0.4-0.7-0.6c-0.3-0.8-1.1-1.2-1.9-0.9c-0.8,0.3-1.2,1.1-0.9,1.9   c0.3,0.9,1.4,2.6,3.5,2.6c0.1,0,0.3,0,0.4,0C58.1,47.3,58.7,46.5,58.6,45.7z"/><path d="M65.1,41.7c0.5,0.4,1.4,0.8,2.4,0.8c0.7,0,1.5-0.2,2.2-0.8c0.6-0.5,0.7-1.5,0.2-2.1c-0.5-0.6-1.5-0.7-2.1-0.2   c-0.3,0.3-0.8,0-0.9-0.1c-0.7-0.5-1.6-0.4-2.1,0.3C64.3,40.3,64.5,41.2,65.1,41.7z"/></g><text x="0" y="115" fill="#000000" font-size="5px" font-weight="bold" font-family="'Helvetica Neue', Helvetica, Arial-Unicode, Arial, Sans-serif">Created by Artem  Kovyazin</text><text x="0" y="120" fill="#000000" font-size="5px" font-weight="bold" font-family="'Helvetica Neue', Helvetica, Arial-Unicode, Arial, Sans-serif">from the Noun Project</text></svg>