<svg xmlns="http://www.w3.org/2000/svg" xmlns:xlink="http://www.w3.org/1999/xlink" version="1.1" x="0px" y="0px" viewBox="0 0 100 125" style="enable-background:new 0 0 100 100;" xml:space="preserve"><g><path d="M87.7,53.7c-2.2-1.1-5.1-3.8-6.7-10.4c-1-4.2-3.7-7.9-5.2-9.6c9.5-10.3,11.2-15.8,11.3-16c0.1-0.4,0.1-0.8-0.1-1.2   c-3.5-5.8-9.4-6.7-13.8-5.6c-0.7,0.2-1.2,0.8-1.1,1.5c0.4,8.9-4.7,15-6.2,16.7c-0.2,0-0.5,0-0.7,0c-3.2-0.2-7.6-0.5-12.3,1.3   C46.3,32.8,42.2,32,39.8,31c-0.6-0.3-1.2-0.1-1.7,0.3s-0.6,1.1-0.3,1.7c0,0.1,2.2,5,7.5,8.4C44.1,42,42,42.9,39.2,43   c-0.5,0-1,0.3-1.3,0.8c-0.2,0.5-0.2,1,0.1,1.5c0.1,0.2,2.2,3.4,5.3,5.1c-3.3,2.4-7.5,4.5-12.3,5.1c-13.4,1.6-20,10.3-19.5,18.1   C12,81,18.4,88.8,29.8,89.5c0.4,0,0.8,0,1.2,0c10.6,0,29.6-8.2,37.5-28.8c3.9,3,8.2,3.1,8.4,3.1c0,0,0,0,0,0c0.6,0,1.1-0.3,1.4-0.9   c0.2-0.5,0.2-1.1-0.2-1.6c-1.4-1.7-1.5-3.6-1.4-4.8c1.8,0.5,3.6,0.7,5.1,0.7c3.3,0,5.6-0.7,5.6-0.8c0.6-0.2,1-0.7,1-1.3   C88.5,54.5,88.2,53.9,87.7,53.7z M42.1,45.7c3.4-0.7,5.6-2.3,6.3-2.7c0.7,0.3,1.3,0.5,2.1,0.8c-0.9,1.1-2.4,2.8-4.4,4.5   C44.6,47.9,43.2,46.8,42.1,45.7z M30,86.5c-9.7-0.6-15.1-7-15.5-13c-0.4-6.4,5.3-13.6,16.9-15C43.9,57,52.1,46.6,53.7,44.4   c1.1,0.2,2.2,0.2,3.4,0.2c1.8,0,3.7-0.2,5.8-0.6c0.5-0.1,0.9,0.1,1.1,0.6c1.2,2.7,2.6,4.8,4.1,6.5C63,77.4,40.8,87.1,30,86.5z    M74.2,60.2c-1.4-0.4-3.1-1.2-4.6-2.6c0.4-1.3,0.8-2.7,1.1-4.1c1,0.8,2.1,1.5,3.2,2C73.7,56.5,73.5,58.3,74.2,60.2z M66.8,43.4   c-0.6-1.5-2.1-2.4-3.6-2.4c-0.3,0-0.5,0-0.8,0.1c-11.1,2.2-17.1-2.8-19.9-6.3c2.9,0.4,6.7,0.1,11.4-1.7c4.1-1.6,7.9-1.3,11-1.1   c0.5,0,1,0.1,1.4,0.1c0.4,0,0.8-0.1,1.1-0.4c0.3-0.3,7.5-7.1,7.6-18.1c2.2-0.3,6.2-0.2,8.9,3.8c-0.7,1.7-3.3,6.7-11.3,15.2   c-0.6,0.6-0.5,1.5,0,2.1c0,0,4.2,4.4,5.4,9.3c1.2,5.1,3.2,8.3,5.3,10.2C79,54.6,71.2,53.7,66.8,43.4z"/><path d="M30.5,61.2c-3.6,0.8-6.6,2.1-8.9,3.8c-0.7,0.5-0.8,1.4-0.3,2.1c0.3,0.4,0.7,0.6,1.2,0.6c0.3,0,0.6-0.1,0.9-0.3   c1.9-1.4,4.5-2.5,7.7-3.3c0.8-0.2,1.3-1,1.1-1.8C32.1,61.5,31.3,61,30.5,61.2z"/><path d="M20.6,67.7c-0.7-0.4-1.6-0.2-2.1,0.5c-0.5,0.7-0.6,1.3-0.7,1.4c-0.2,0.8,0.2,1.6,1,1.8c0.2,0,0.3,0.1,0.5,0.1   c0.6,0,1.2-0.4,1.4-1c0,0,0.1-0.3,0.3-0.7C21.6,69.1,21.3,68.2,20.6,67.7z"/></g><text x="0" y="115" fill="#000000" font-size="5px" font-weight="bold" font-family="'Helvetica Neue', Helvetica, Arial-Unicode, Arial, Sans-serif">Created by Artem  Kovyazin</text><text x="0" y="120" fill="#000000" font-size="5px" font-weight="bold" font-family="'Helvetica Neue', Helvetica, Arial-Unicode, Arial, Sans-serif">from the Noun Project</text></svg>