<svg xmlns="http://www.w3.org/2000/svg" xmlns:xlink="http://www.w3.org/1999/xlink" version="1.1" x="0px" y="0px" viewBox="0 0 100 125" style="enable-background:new 0 0 100 100;" xml:space="preserve"><path d="M63,39.7c-4-2.9-6.1-7.9-6.8-9.9c-0.4-1.1-1-2.1-1.7-2.8c-2-2-4.5-2.5-6.8-1.4c-1.9,0.9-3.3,2.7-4,4.9  c-0.6,2.2-2.3,6.4-6.6,9.3c-5.2,3.5-10.8,7.9-10.8,16.4c0,3.2,1.1,18.9,23.8,18.9c22.6,0,23.8-15.8,23.8-18.9  C73.8,48.1,69.1,44.1,63,39.7z M50.4,72c-0.1,0-0.1,0-0.2,0c-0.1,0-0.1,0-0.2,0c-0.1,0-0.1,0-0.2,0c-0.1,0-0.1,0-0.2,0  c-4.4-0.5-7.8-6.6-7.8-13.8c0-4.3,0.7-5.8,3.3-11c0.1-0.1,3.9-8.9,5-15.1c0.2,1.1,0.5,2.5,0.9,4.1c1.1,4.2,2.6,8.6,3.8,11  c2.6,5.3,3.3,6.7,3.3,11C58.2,65.4,54.7,71.5,50.4,72z M29.2,56.1c0-6.4,3.6-10.1,9.5-13.9c5.1-3.4,7.1-8.3,7.9-10.9  c0.2-0.7,0.5-1.2,0.9-1.7c-0.1,3.3-2.8,12.1-4.9,16.4c-2.7,5.3-3.7,7.3-3.7,12.4c0,5.4,1.7,10.1,4.3,13.2  C30.4,68.9,29.2,59.4,29.2,56.1z M56.9,71.4c2.6-3.1,4.3-7.8,4.3-13.2c0-5-1-7-3.7-12.4c-2.1-4.2-4.5-13-4.7-16.2  c0.2,0.3,0.5,0.7,0.6,1.1c0.8,2.3,3.1,8,7.8,11.4c5.7,4.2,9.5,7.4,9.5,14C70.8,59.4,69.6,68.9,56.9,71.4z"/><text x="0" y="115" fill="#000000" font-size="5px" font-weight="bold" font-family="'Helvetica Neue', Helvetica, Arial-Unicode, Arial, Sans-serif">Created by Artem  Kovyazin</text><text x="0" y="120" fill="#000000" font-size="5px" font-weight="bold" font-family="'Helvetica Neue', Helvetica, Arial-Unicode, Arial, Sans-serif">from the Noun Project</text></svg>