<svg xmlns="http://www.w3.org/2000/svg" xmlns:xlink="http://www.w3.org/1999/xlink" version="1.1" x="0px" y="0px" viewBox="0 0 100 125" style="enable-background:new 0 0 100 100;" xml:space="preserve"><path d="M87.7109375,22.2402344c-0.2861328-0.2910156-0.6904297-0.4482422-1.0859375-0.4482422  c-0.302002,0.003479-3.4740601,0.0806274-7.9289551,1.4980469c1.5583496-1.3424683,3.2786865-2.8052979,4.9387207-4.1992188  c0.3740234-0.3139648,0.5712891-0.7905273,0.5292969-1.2768555l-0.4931641-5.7285156  c-0.0400391-0.4667969-0.2949219-0.8876953-0.6904297-1.1381836c-0.3955078-0.2509766-0.8857422-0.3037109-1.3242188-0.1401367  l-3.2265625,1.1933594l0.7324219-3.3613281c0.0898438-0.4145508,0.0009766-0.8476562-0.2460938-1.1928711  c-0.2470703-0.3447266-0.6289062-0.5688477-1.0498047-0.6166992l-1.8457031-0.2099609  c-0.7958984-1.0136719-2.6494141-3.1367188-5.1015625-4.4130859c-0.5-0.2592773-1.1044922-0.2177734-1.5634766,0.109375  c-2.2509766,1.605957-3.7910156,3.9663086-4.4375,5.0810547l-1.7978516,0.4648438  c-0.4111328,0.105957-0.7578125,0.3813477-0.9541016,0.7573242s-0.2246094,0.8173828-0.078125,1.215332l1.1943359,3.2270508  l-3.3613281-0.7324219c-0.4589844-0.1000977-0.9355469,0.0200195-1.2919922,0.3237305  c-0.3564453,0.3032227-0.5507812,0.7558594-0.5253906,1.2231445l0.3105469,5.7412109  c0.0253906,0.4731445,0.2734375,0.9057617,0.6679688,1.1679688l10.3787231,6.8986816  c-1.0234985,0.6653442-2.0571289,1.4003296-3.0931396,2.2246704c-0.0303955-0.0089722-0.0579834-0.0229492-0.0892944-0.0300903  c-4.1071777-0.9367065-8.2913208,0.1853027-11.3464966,2.9370728c-0.2737427-0.6584473-0.5925293-1.3026123-0.9796753-1.9185181  c-1.8125-2.8833008-4.6386719-4.8886719-7.9589844-5.6459961c-3.3242188-0.7573242-6.7373047-0.1767578-9.6210938,1.6357422  s-4.8886719,4.6391602-5.6455078,7.9594727c-0.3839722,1.6799316-0.4022217,3.423584-0.097229,5.1085815  c-0.3024292,0.1116943-0.6034546,0.2298584-0.8988647,0.367981c-2.7646484,1.2919922-4.8613281,3.5839844-5.9023438,6.4526367  c-1.0878296,2.9971313-0.8347778,6.1574707,0.4440918,8.8286743c-4.3272095,0.8857422-7.8342285,4.230835-8.8425293,8.6542358  c-0.6796875,2.9750977-0.1591797,6.0371094,1.4648438,8.6210938c0.0804443,0.1279907,0.1729736,0.2449951,0.2578125,0.3690796  c-2.2312622,1.4827271-3.8185425,3.7434082-4.4248047,6.4004517c-0.6240234,2.7382812-0.1455078,5.5556641,1.3496094,7.9331055  c1.4941406,2.3779297,3.8251953,4.03125,6.5625,4.6557617c0.7763672,0.1767578,1.5605469,0.2641602,2.3408203,0.2641602  c1.9360962,0,3.8434448-0.5375977,5.5103149-1.5640259c1.8075562,2.4083862,4.3761597,4.0889893,7.3451538,4.7661743  c0.9511719,0.2167969,1.9091797,0.3242188,2.8603516,0.3242188c2.3730469-0.0004883,4.7021484-0.6665039,6.7607422-1.9599609  c2.8837891-1.8125,4.8886719-4.6391602,5.6464844-7.9599609c0.3250122-1.4258423,0.3972778-2.8831177,0.2302246-4.3148193  c0.6843262,0.2883301,1.3944702,0.5265503,2.1320801,0.6947021C54.4169922,82.7050781,55.375,82.8125,56.3261719,82.8125  c2.3730469-0.0004883,4.7021484-0.6665039,6.7607422-1.9599609c2.8837891-1.8125,4.8886719-4.6391602,5.6464844-7.9599609  c0.1427612-0.6263428,0.2224731-1.2558594,0.270752-1.8848267c0.2585449,0.017334,0.5170898,0.0342407,0.7731934,0.0342407  c5.2958984-0.0004883,10.0263672-3.6489258,11.2460938-8.9926758c1.2539673-5.4990845-1.6620483-10.9871216-6.6552734-13.1610107  c0.6956787-1.1539307,1.2012939-2.4077148,1.5058594-3.7432861c0.7088623-3.1077881,0.2142334-6.3656006-1.3436279-9.1188354  c3.5266724-1.9859009,8.1044312-3.616394,13.9891357-4.204895c0.5898438-0.059082,1.0898438-0.4599609,1.2753906-1.0234375  C89.859375,30.6010742,91.3417969,25.9331055,87.7109375,22.2402344z M61.2060547,15.6791992l4.1142578,0.8964844  c0.5351562,0.1152344,1.0917969-0.0683594,1.4511719-0.4819336c0.3603516-0.4135742,0.4648438-0.9902344,0.2753906-1.5043945  l-1.5683594-4.2387695l0.8173828-0.2114258c0.4189453-0.1083984,0.7724609-0.3945312,0.9667969-0.78125  c0.0126953-0.0258789,1.1787109-2.3198242,3.0908203-4.0063477c2.1279297,1.4033203,3.6015625,3.512207,3.6171875,3.5341797  c0.2460938,0.3583984,0.6347656,0.5922852,1.0664062,0.6411133l0.8398438,0.0957031l-0.9619141,4.4160156  c-0.1162109,0.5356445,0.0683594,1.0917969,0.4814453,1.4516602c0.4140625,0.3588867,0.9921875,0.4638672,1.5048828,0.2744141  l3.9501953-1.4609375l0.2568359,2.9912109c-5.4306641,4.5673828-8.1259766,6.9194336-9.4541016,8.2451172l-10.2851562-6.8364258  L61.2060547,15.6791992z M55.8798828,36.1508789c1.8705444-2.2932739,4.6010742-3.5546875,7.4641113-3.5753784  c-2.1893921,2.1210327-4.3366699,4.6531982-6.3406982,7.6915283c-0.2284546-0.0670776-0.4547119-0.1394043-0.6888428-0.1928101  c-0.2089233-0.0476685-0.4179688-0.0771484-0.6270142-0.1127319c0.2287598-1.2523193,0.2694702-2.5105591,0.1269531-3.7467041  C55.8353271,36.1920776,55.8601074,36.1751099,55.8798828,36.1508789z M61.9873047,53.0883789  c-0.411377,1.8056641-1.3821411,3.3692627-2.7901611,4.5542603c-0.0201416-0.0046997-0.0392456-0.012085-0.0594482-0.0166626  c-1.9071655-0.4345093-3.8861084-0.4006348-5.7745972,0.0475464c-1.7886963-2.6078491-4.4297485-4.437561-7.5171509-5.1791382  c0.2167358-1.3487549,0.1778564-2.6991577-0.0805664-3.9962158c0.041748-0.0722656,0.0814819-0.1463013,0.1115723-0.2271729  c1.4628906-3.9423828,5.6591797-6.2104492,9.7695312-5.2719727c2.1943359,0.5004883,4.0625,1.8256836,5.2607422,3.730957  C62.1044922,48.6357422,62.4882812,50.8935547,61.9873047,53.0883789z M48.0546875,73.140625  c-2.2050781,1.3862305-4.8173828,1.8300781-7.3564453,1.2509766c-2.5400391-0.5791016-4.7011719-2.112793-6.0878906-4.3178711  c-1.3857422-2.2050781-1.8300781-4.8173828-1.25-7.3569336c0.5791016-2.5390625,2.1123047-4.7011719,4.3173828-6.0869141  c1.5742188-0.9892578,3.3554688-1.4985352,5.1699219-1.4985352c0.7275391,0,1.4599609,0.0820312,2.1865234,0.2475586  c5.2421875,1.1958008,8.5341797,6.4331055,7.3378906,11.6748047C51.7929688,69.5927734,50.2597656,71.7548828,48.0546875,73.140625z   M33.6513672,35.5136719c0.5791016-2.5390625,2.1123047-4.7011719,4.3173828-6.0869141s4.8183594-1.8291016,7.3564453-1.2509766  c5.2421875,1.1958008,8.5341797,6.4331055,7.3378906,11.6757812c-0.0003052,0.0014038-0.0007324,0.0028076-0.0010376,0.0042114  c-3.3521118,0.3336792-6.4243774,2.140564-8.3323975,4.9431763c-1.3104858-2.182373-3.331543-3.9470215-5.862854-4.8658447  c-1.5990601-0.5802002-3.2699585-0.7803955-4.9152222-0.6322632C33.3416748,38.0507202,33.3666992,36.7598877,33.6513672,35.5136719  z M26.6484375,47.7988281c0.7675781-2.1157227,2.3134766-3.8056641,4.3525391-4.7587891  c2.0380859-0.9521484,4.3251953-1.0551758,6.4423828-0.2866211c3.8473511,1.3959961,6.1207275,5.4248657,5.4199219,9.3890381  c-2.3803101-0.0039062-4.7175903,0.6504517-6.7822266,1.9473877c-1.822998,1.145813-3.2919312,2.6985474-4.319458,4.5235596  c-0.0223389-0.0079346-0.0459595-0.0120239-0.0682373-0.0201416C27.3261719,57.0083008,25.0634766,52.1660156,26.6484375,47.7988281  z M18.3544922,64.925293c0.8407593-3.6870728,4.0350952-6.3545532,7.7956543-6.5391235  c1.1920166,1.305481,2.7000122,2.3544312,4.4686279,3.0057983c-0.0622559,0.2189941-0.1331787,0.4342041-0.1842041,0.6578369  c-0.7568359,3.3203125-0.1757812,6.7368164,1.6357422,9.6206055c0.1938477,0.3083496,0.4049683,0.6014404,0.6213989,0.8892822  c-0.9711304,1.0318604-2.1687622,1.8162231-3.5315552,2.258667c-1.4375,0.4663086-2.9814453,0.5351562-4.4648438,0.1958008  c-2.1943359-0.5004883-4.0625-1.8256836-5.2607422-3.730957C18.2373047,69.3774414,17.8535156,67.1196289,18.3544922,64.925293z   M21.3076172,89.3129883c-1.9570312-0.4462891-3.6230469-1.6279297-4.6914062-3.3271484  c-1.0673828-1.6992188-1.4101562-3.7128906-0.9628906-5.6699219c0.4646606-2.0401611,1.7387085-3.7544556,3.526001-4.8014526  c1.3812256,1.1737061,3.0307007,2.0098877,4.848999,2.4244995c0.8398438,0.1914062,1.6943359,0.2871094,2.546875,0.2871094  c0.1332397,0,0.2661133-0.0109253,0.399231-0.015564c-0.3084717,0.7146606-0.5584717,1.4564209-0.7341919,2.2269897  c-0.6112061,2.6815186-0.3353271,5.4208984,0.7421265,7.8966064C25.2970581,89.3962402,23.2609253,89.7595825,21.3076172,89.3129883  z M47.8613281,80.0092773c0.6201172,1.7416992,0.7304688,3.6201172,0.3164062,5.4321289  c-0.5791016,2.5390625-2.1123047,4.7011719-4.3173828,6.0869141c-2.2060547,1.3862305-4.8183594,1.8300781-7.3564453,1.2509766  c-2.5400391-0.5791016-4.7011719-2.112793-6.0878906-4.3178711c-1.3857422-2.2050781-1.8300781-4.8173828-1.25-7.3574219  c0.2880859-1.2685547,0.8144531-2.4438477,1.5644531-3.4936523c0.050354-0.0704956,0.0896606-0.1452026,0.1262207-0.2206421  c1.4862671-0.6012573,2.8140869-1.5050659,3.9230957-2.6533203c1.5092163,1.2410278,3.2901611,2.1328735,5.2504883,2.5800171  c0.9511719,0.2167969,1.9091797,0.3242188,2.8603516,0.3242188c0.9882812,0,1.9675293-0.1223755,2.9241943-0.350708  c0.5720825,0.8305054,1.2318115,1.5801392,1.9660645,2.2419434C47.7836304,79.6907349,47.8049927,79.8513184,47.8613281,80.0092773z   M65.8076172,72.2255859c-0.5791016,2.5390625-2.1123047,4.7011719-4.3173828,6.0869141s-4.8183594,1.8291016-7.3564453,1.2509766  c-2.1483154-0.4901123-4.0320435-1.6710815-5.4006958-3.3613892c0.3108521-0.1618042,0.6181641-0.3328857,0.9182739-0.5214233  c2.8837891-1.8125,4.8886719-4.6391602,5.6464844-7.9599609c0.5621338-2.4662476,0.3829346-4.9847412-0.4875488-7.2993774  c1.2086792-0.1865845,2.4529419-0.1459351,3.6594238,0.1294556c2.5390625,0.5791016,4.7011719,2.112793,6.0869141,4.3178711  C65.9433594,67.0737305,66.3876953,69.6865234,65.8076172,72.2255859z M78.0976562,61.3823242  c-0.9690552,4.2523193-4.9451294,7.0489502-9.2108154,6.6054688c-0.2719727-1.6540527-0.8711548-3.2536621-1.7901611-4.7158203  c-1.2010498-1.9105835-2.8536987-3.4245605-4.7937622-4.4564819c1.2739258-1.432251,2.180603-3.1778564,2.6091919-5.0606079  c0.1115723-0.4885254,0.178894-0.979248,0.2261963-1.4699097c1.9279175-1.2366943,4.2790527-1.6642456,6.5179443-1.1506958  C76.2578125,52.184082,79.1474609,56.78125,78.0976562,61.3823242z M72.9482422,44.4785156  c-0.2954712,1.2990723-0.8458252,2.4923096-1.6217041,3.5584106c-2.1687012-0.2974854-4.3723145,0.0302124-6.355835,0.9312134  c-0.1730347-0.8614502-0.4472656-1.7022095-0.8197021-2.5107422c0.7212524-1.4629517,2.9816284-5.3740845,7.8445435-8.8230591  C73.1293335,39.711853,73.4797363,42.1503906,72.9482422,44.4785156z M87.1171875,28.9594727  C71.8001709,30.8544922,64.833313,39.4298706,62.2981567,43.619812c-0.734436-0.8278809-1.5785522-1.5366821-2.5112915-2.1134033  c9.7164307-14.3795776,23.1186523-16.397644,26.2160645-16.671936  C87.1650391,26.3237305,87.2246094,27.9697266,87.1171875,28.9594727z"/><text x="0" y="115" fill="#000000" font-size="5px" font-weight="bold" font-family="'Helvetica Neue', Helvetica, Arial-Unicode, Arial, Sans-serif">Created by Artem  Kovyazin</text><text x="0" y="120" fill="#000000" font-size="5px" font-weight="bold" font-family="'Helvetica Neue', Helvetica, Arial-Unicode, Arial, Sans-serif">from the Noun Project</text></svg>