<svg xmlns="http://www.w3.org/2000/svg" xmlns:xlink="http://www.w3.org/1999/xlink" version="1.1" x="0px" y="0px" viewBox="0 0 100 125" style="enable-background:new 0 0 100 100;" xml:space="preserve"><g><path d="M75.4,24.6c-15-15-35.8-18.6-46.3-8.1c-0.2,0.2-0.4,0.4-0.6,0.6c0,0-0.1,0-0.1,0.1c-5,5-14,15.4-17,27.9   c-3,12.4,0.4,23.6,10.1,33.3c7.4,7.4,15.7,11.1,24.8,11.1c2.8,0,5.6-0.3,8.5-1c12.6-3,22.9-11.9,27.9-17c0.1-0.1,0.1-0.1,0.1-0.2   c0.2-0.2,0.4-0.3,0.6-0.5C94.1,60.3,90.4,39.5,75.4,24.6z M45.1,13.4c9,0,19.6,4.7,28.2,13.3c13.8,13.8,17.4,32.7,8.1,42.1   c-9.4,9.4-28.3,5.8-42.1-8.1C25.5,46.9,21.9,28,31.3,18.6C34.8,15.1,39.6,13.4,45.1,13.4z M54.2,85.6c-11.3,2.7-21.6-0.4-30.5-9.3   s-12-19.1-9.3-30.5c1.7-7.1,5.4-13.4,9.1-18.4c-2,10.8,2.9,24.6,13.7,35.4c9.2,9.2,20.6,14.1,30.4,14.1c1.7,0,3.4-0.2,5-0.5   C67.6,80.2,61.3,83.9,54.2,85.6z"/><path d="M59.7,54.8c2.2,0,4.1-0.7,5.6-2.2c3.6-3.6,2.5-10.5-2.4-15.5c-5-5-11.8-6.1-15.5-2.4c-3.7,3.7-2.6,10.4,2.4,15.5   C52.8,53.2,56.5,54.8,59.7,54.8z M49.5,36.8c0.9-0.9,2.1-1.3,3.4-1.3c2.5,0,5.4,1.3,7.8,3.7c3.7,3.7,4.8,8.8,2.4,11.2   c-2.4,2.4-7.5,1.3-11.2-2.4C48.2,44.4,47.1,39.2,49.5,36.8z"/><path d="M68.8,34.3c0.6-0.6,0.4-1.8-0.5-2.6c-0.9-0.9-2-1.1-2.6-0.5c-0.6,0.6-1,2.4-0.2,3.3C66.4,35.3,68.2,34.8,68.8,34.3z"/><path d="M46.8,56.3c0.6-0.6,1-2.4,0.2-3.3c-0.9-0.9-2.7-0.4-3.3,0.2c-0.6,0.6-0.4,1.8,0.5,2.6S46.2,56.9,46.8,56.3z"/><path d="M73.8,61.3c0.6-0.6,0.4-1.8-0.5-2.6c-0.9-0.9-3-2-3.6-1.4c-0.6,0.6,0.6,2.7,1.4,3.6C72,61.6,73.2,61.8,73.8,61.3z"/><path d="M42.8,30.3c0.6-0.6-0.6-2.7-1.4-3.6c-0.9-0.9-2-1.1-2.6-0.5s-0.4,1.8,0.5,2.6C40.1,29.7,42.2,30.9,42.8,30.3z"/><path d="M36.8,37.1c1,0.4,3.1,0.5,3.2-0.4c0.1-0.9-1.8-2.6-2.9-3c-1-0.4-1.9,0-2,0.9C35,35.6,35.7,36.7,36.8,37.1z"/><path d="M72.6,50.8c-0.1,0.9,1.8,2.6,2.9,3c1,0.4,1.9,0,2-0.9c0.1-0.9-0.7-2.1-1.7-2.5S72.7,49.8,72.6,50.8z"/><path d="M57.6,28.9c1,0.4,2-1,2.1-1.9c0.1-0.9-0.7-2.1-1.7-2.5s-1.9,0-2,0.9C55.9,26.3,56.6,28.5,57.6,28.9z"/><path d="M54.9,58.5c-1-0.4-2,1-2.1,1.9c-0.1,0.9,0.7,2.1,1.7,2.5s1.9,0,2-0.9C56.6,61.2,56,59,54.9,58.5z"/><path d="M63.3,60.1c-0.9,0.1-0.8,2.1-0.4,3.2c0.4,1,1.6,1.8,2.5,1.7c0.9-0.1,1.3-1,0.9-2C65.8,61.9,64.2,60,63.3,60.1z"/><path d="M49.2,27.4c0.9-0.1,0.8-2.1,0.4-3.2s-1.6-1.8-2.5-1.7c-0.9,0.1-1.3,1-0.9,2C46.7,25.6,48.3,27.5,49.2,27.4z"/><path d="M37.9,43.4c-0.9,0.1-1.3,1-0.9,2s1.6,1.8,2.5,1.7c0.9-0.1,2.4-1.1,1.9-2.1C41,44,38.8,43.4,37.9,43.4z"/><path d="M74.6,44c0.9-0.1,1.3-1,0.9-2s-1.6-1.8-2.5-1.7c-0.9,0.1-2.4,1.1-1.9,2.1C71.5,43.4,73.7,44.1,74.6,44z"/></g><text x="0" y="115" fill="#000000" font-size="5px" font-weight="bold" font-family="'Helvetica Neue', Helvetica, Arial-Unicode, Arial, Sans-serif">Created by Artem  Kovyazin</text><text x="0" y="120" fill="#000000" font-size="5px" font-weight="bold" font-family="'Helvetica Neue', Helvetica, Arial-Unicode, Arial, Sans-serif">from the Noun Project</text></svg>