<svg xmlns="http://www.w3.org/2000/svg" xmlns:xlink="http://www.w3.org/1999/xlink" version="1.1" x="0px" y="0px" viewBox="0 0 100 125" style="enable-background:new 0 0 100 100;" xml:space="preserve"><g><path d="M84.5,43.2c-4-11.7-18.2-20.1-34.4-20.1c-16.2,0-30.4,8.4-34.4,20.1c-3.5,0.2-6.4,3.1-6.4,6.7s2.8,6.5,6.4,6.7   c4,11.7,18.2,20.1,34.4,20.1c16.2,0,30.4-8.4,34.4-20.1c3.5-0.2,6.4-3.1,6.4-6.7S88.1,43.4,84.5,43.2z M84.2,53.7   c-0.1,0-0.3,0-0.4,0l-0.1,0c-0.7-0.1-1.4,0.4-1.6,1.1c-3.1,11-16.5,19-31.9,19c-15.4,0-28.8-8-31.9-19c-0.2-0.7-0.8-1.1-1.4-1.1   c-0.1,0-0.1,0-0.2,0l-0.1,0c-0.1,0-0.3,0-0.4,0c-2.1,0-3.7-1.7-3.7-3.7s1.7-3.7,3.7-3.7c0.1,0,0.3,0,0.4,0l0.1,0   c0.7,0.1,1.4-0.4,1.6-1.1c3.1-11,16.5-19,31.9-19c15.4,0,28.8,8,31.9,19c0.2,0.7,0.9,1.2,1.6,1.1l0.1,0c0.1,0,0.3,0,0.4,0   c2.1,0,3.7,1.7,3.7,3.7S86.2,53.7,84.2,53.7z"/><path d="M28.7,40c-0.7-0.5-1.6-0.3-2.1,0.3c-0.3,0.5-0.7,1-1,1.5c-0.4,0.7-0.2,1.6,0.5,2.1c0.2,0.1,0.5,0.2,0.8,0.2   c0.5,0,1-0.3,1.3-0.7c0.2-0.4,0.5-0.8,0.8-1.2C29.5,41.5,29.3,40.5,28.7,40z"/><path d="M40.6,30.9c-0.2,0.1-5.8,1.6-10.7,5.8c-0.6,0.5-0.7,1.5-0.1,2.1c0.3,0.3,0.7,0.5,1.1,0.5c0.4,0,0.7-0.1,1-0.4   c4.3-3.8,9.5-5.2,9.5-5.2c0.8-0.2,1.3-1,1.1-1.8C42.3,31.2,41.4,30.7,40.6,30.9z"/></g><text x="0" y="115" fill="#000000" font-size="5px" font-weight="bold" font-family="'Helvetica Neue', Helvetica, Arial-Unicode, Arial, Sans-serif">Created by Artem  Kovyazin</text><text x="0" y="120" fill="#000000" font-size="5px" font-weight="bold" font-family="'Helvetica Neue', Helvetica, Arial-Unicode, Arial, Sans-serif">from the Noun Project</text></svg>