<svg xmlns="http://www.w3.org/2000/svg" xmlns:xlink="http://www.w3.org/1999/xlink" version="1.1" x="0px" y="0px" viewBox="0 0 100 125" style="enable-background:new 0 0 100 100;" xml:space="preserve"><path d="M83.8554688,24.3198242C83.75,24.1054688,83.59375,23.9194336,83.4013672,23.777832  c-0.1358643-0.1000366-2.8445435-2.0584106-6.0941162-2.116333c-0.9000854-4.4421387-3.5673218-6.8580933-3.6920166-6.9686279  c-0.1083984-0.0957031-0.2294922-0.1748047-0.3603516-0.2358398c-4.1102905-1.9133911-6.8548584-1.7437744-8.3649902-1.3308716  c-0.8948975-1.6741333-2.1426392-2.6836548-2.2209473-2.7457886c-0.0966797-0.0761719-0.2011719-0.1401367-0.3134766-0.190918  c-0.1669922-0.0756836-4.1523438-1.8349609-9.6767578-0.8525391c-4.9960938,0.8896484-12.2802734,4.2851562-18.609375,15.4082031  c-1.5566406,2.7353516-3.2275391,5.5112305-4.9970703,8.449707c-8.5029297,14.1201172-17.2949219,28.7211914-14.2636719,40.3168945  c1.0283203,3.9306641,3.3994141,7.2626953,7.0644531,9.9360352c0.0214844,0.0170898,0.0449219,0.0336914,0.0683594,0.0498047  c0.7509766,0.5439453,1.5556641,1.0605469,2.4140625,1.5488281c0.4564819,0.2597046,0.9036255,0.4910889,1.3511963,0.7237549  c0.0257568,0.0143433,0.0477295,0.0327759,0.074585,0.0457764c0.0114746,0.0055542,0.0454102,0.0204468,0.0690918,0.031189  c4.3783569,2.2531738,8.3364258,3.2368774,11.9641113,3.2368774c11.7148438-0.0004883,20.0126953-10.1416016,28.1054688-20.0327148  c1.6621094-2.0322266,3.3818359-4.1333008,5.0947266-6.0961914C83.7890625,48.3222656,88.5898438,33.8789062,83.8554688,24.3198242z   M71.7666016,17.074707c0.4675293,0.4766235,1.9927368,2.2208862,2.5928345,5.1235962  c-1.5976562,0.6484375-2.9423828,1.8596802-4.0088501,3.6317749c-1.0410156-0.3056641-2.5693359-0.5810547-4.2294922-0.3027344  c-0.0742188-2.0283203-0.9580078-3.4682617-1.9384766-4.3857422c1.1660156-1.5917969,1.703125-3.2617188,1.5986328-4.9814453  c-0.0032959-0.0545654-0.0126953-0.1060791-0.0172729-0.1600342C66.6535034,15.7844238,68.5959473,15.6459351,71.7666016,17.074707z   M31.6416016,34.7426758c1.7792969-2.9550781,3.4599609-5.746582,5.0351562-8.5141602  C46.9472656,8.1791992,59.2285156,12.1811523,60.9375,12.8481445c0.4335938,0.3994141,1.7529297,1.7539062,1.8505859,3.5141602  c0.0722656,1.3217773-0.5683594,2.6772461-1.9072266,4.0292969c-0.3564453,0.3608398-0.5068359,0.8779297-0.3994141,1.3740234  c0.1083984,0.4960938,0.4589844,0.9038086,0.9345703,1.0839844c0.0898438,0.0336914,2.1542969,0.8549805,1.6230469,3.9121094  c-2.2089844,1.4975586-3.75,4.1733398-4.5966797,7.9794922c-1.6064453,0.2773438-4.4599609,1.1015625-6.4189453,3.5395508  c-1.6640625,2.0708008-2.3056641,4.7963867-1.9140625,8.1142578c-2.3300781,1.0527344-5.0859375,3.5258789-4.9326172,7.9399414  c-1.4951172-0.2490234-3.46875-0.2353516-5.3535156,0.8291016c-2.9003906,1.6376953-4.6210938,5.1870117-5.1152344,10.5478516  c-0.7529297,8.1738281-3.0039062,13.8398438-6.1767578,15.5444336c-1.2974854,0.6988525-2.7701416,0.692627-4.3799438-0.0050659  c-1.1834717-1.0161133-1.9036865-2.2109375-2.2216187-3.6878052c-0.7178955-3.3346558,0.5591431-8.0917358,3.7814941-14.1799927  c0.0161743-0.0221558,0.0373535-0.0384521,0.0524902-0.0617065c2.3886719-3.6738281,5.0703125-2.7578125,5.3837891-2.6342773  c0.7607422,0.3173828,1.6289062-0.0371094,1.9541016-0.7919922c0.3271484-0.7612305-0.0244141-1.6435547-0.7851562-1.9707031  c-0.7387085-0.3173828-1.8892822-0.5322876-3.1992798-0.350708c0.3240967-0.5083008,0.6537476-1.0202637,0.9990845-1.5428467  c1.6994629-2.5715942,3.1606445-4.8400879,4.4388428-6.864563c2.5281372-3.8631592,6.2626953-2.9605103,6.447876-2.9113159  c0.7919922,0.2163086,1.6171875-0.2504883,1.8378906-1.0454102c0.2216797-0.7983398-0.2451172-1.6254883-1.0429688-1.847168  c-0.8553467-0.2388306-2.1644287-0.348877-3.6157227-0.0745239c0.8914795-1.4795532,1.6599731-2.7797852,2.3481445-3.944519  c1.0791016-1.8261719,1.9316406-3.2680664,2.7714844-4.5839844c0.4453125-0.6982422,0.2402344-1.6259766-0.4580078-2.0712891  c-0.6972656-0.4453125-1.625-0.2421875-2.0712891,0.4570312c-0.8671875,1.359375-1.7744141,2.8945312-2.8251953,4.671875  c-0.6414185,1.0852661-1.3554688,2.2929077-2.1719971,3.651001c-0.2391357-0.5097656-0.5151367-0.9098511-0.7459717-1.1939697  c-0.2207031-0.3154297-0.5625-0.5454102-0.9726562-0.6162109c-0.8134766-0.1450195-1.5927734,0.4057617-1.7333984,1.2226562  c-0.0742188,0.4326172,0.0986328,0.9492188,0.3789062,1.2866211c1.0380859,1.25,0.8007812,3.1577148-0.6699219,5.3725586  c-0.0006714,0.0009766-0.0009766,0.0020142-0.0015869,0.0029907c-0.0020142,0.0031128-0.0042114,0.0056152-0.0062256,0.008728  c-0.0045776,0.007019-0.0068359,0.0148315-0.0112915,0.0219116c-1.2670288,2.006958-2.7150879,4.2554321-4.3988647,6.8032837  c-0.2139282,0.3236694-0.4117432,0.6367188-0.6178589,0.9552002c-0.2736816-0.3989868-0.5393066-0.6276245-0.6292114-0.6973877  c-0.6542969-0.5078125-1.5957031-0.3896484-2.1044922,0.2646484c-0.5078125,0.6542969-0.3896484,1.5966797,0.2646484,2.1044922  c0.0091553,0.0072632,0.5552979,0.8096313-0.2504883,2.7667847c-3.6607056,6.3826904-5.4830933,11.5706177-5.5270386,15.7017822  c-0.4354248-0.8626099-0.7884521-1.7645874-1.0379028-2.7195435C14.9990234,62.3803711,23.8408203,47.6972656,31.6416016,34.7426758  z M68.7548828,60.9824219c-1.7451172,1.9985352-3.4794922,4.1186523-5.1572266,6.1689453  c-8.5031738,10.392334-16.62677,20.3125-28.4674072,18.6611938c4.1016846-1.3248291,9.262085-4.5593262,14.8878784-11.7585449  c1.864502-2.032959,2.9663696-1.6174316,2.9789429-1.611145c-0.0537109-0.0224609-0.0791016-0.0429688-0.0791016-0.0429688  l1.5410156-2.5742188c-0.1113281-0.0665894-0.4958496-0.270813-1.083252-0.3753052  c2.4641113-3.4400024,4.5252075-6.2060547,6.2734985-8.4973755c1.4978027-2.0186768,3.1164551-2.8033447,4.7091675-2.2449951  c0.4238281,0.1494141,0.984375,0.1269531,1.3681641-0.105957c0.7080078-0.4306641,0.9326172-1.3535156,0.5019531-2.0615234  c-0.2099609-0.3447266-0.5361328-0.5751953-0.8984375-0.6704102c-0.3655396-0.126709-0.8783569-0.2593384-1.4917603-0.3087158  c3.7025757-4.7161255,5.6278076-7.2280273,8.0942993-12.802124c0.3349609-0.7578125-0.0078125-1.6435547-0.765625-1.9785156  c-0.7587891-0.3374023-1.6435547,0.0083008-1.9785156,0.7646484c-2.3571777,5.3276978-4.1098633,7.5799561-7.897583,12.4025879  c-0.3528442-1.9192505-1.2387085-3.1600952-1.3114014-3.2595215c-0.4882812-0.6625977-1.4140625-0.8037109-2.0820312-0.3227539  c-0.6679688,0.4814453-0.8183594,1.4165039-0.34375,2.0883789c0.0917358,0.1288452,2.1968994,3.194519-0.5172119,6.977356  c-1.7784424,2.3363647-3.8740845,5.1564941-6.3739014,8.6549072c-0.3227539-1.1696777-0.8994751-2.0748291-1.4272461-2.6112671  c-0.5820312-0.590332-1.5302734-0.597168-2.1220703-0.0166016c-0.5898438,0.5810547-0.5976562,1.5307617-0.0166016,2.1210938  c0.0223999,0.0219116,2.1289062,2.2401733-0.4862671,5.9187012c-6.9873657,8.4150391-12.817688,10.0963135-16.2443848,10.1482544  c3.9533081-2.4336548,6.4875488-8.513916,7.3302612-17.6592407c0.390625-4.2485352,1.6298828-7.0844727,3.5839844-8.2006836  c2.2714844-1.2973633,5.03125-0.0249023,5.0517578-0.015625c0.5224609,0.2524414,1.1445312,0.1821289,1.5966797-0.1835938  c0.4511719-0.3657227,0.6513672-0.9589844,0.5136719-1.5234375c-1.3935547-5.6914062,3.1855469-7.0830078,3.703125-7.2207031  c0.7685547-0.1943359,1.2529297-0.9521484,1.1074219-1.730957c-0.5605469-2.9868164-0.1923828-5.3198242,1.0947266-6.9350586  c1.921875-2.4111328,5.3710938-2.5756836,5.4003906-2.5771484c0.7080078-0.0224609,1.3046875-0.5375977,1.4287109-1.2358398  c0.6982422-3.9165039,2.0703125-6.4174805,4.0791016-7.4335938c2.4003906-1.2148438,5.1054688,0.0888672,5.125,0.0991211  c0.3613281,0.1821289,0.7802734,0.2119141,1.1650391,0.0795898c0.3828125-0.1318359,0.6962891-0.4125977,0.8681641-0.7788086  c0.9296875-1.972168,2.1455078-3.1625977,3.6132812-3.5390625c2.1894531-0.5615234,4.5117188,0.7138672,5.3085938,1.2124023  C85.1474609,34.340332,80.3603516,47.6879883,68.7548828,60.9824219z"/><text x="0" y="115" fill="#000000" font-size="5px" font-weight="bold" font-family="'Helvetica Neue', Helvetica, Arial-Unicode, Arial, Sans-serif">Created by Artem  Kovyazin</text><text x="0" y="120" fill="#000000" font-size="5px" font-weight="bold" font-family="'Helvetica Neue', Helvetica, Arial-Unicode, Arial, Sans-serif">from the Noun Project</text></svg>