<svg xmlns="http://www.w3.org/2000/svg" xmlns:xlink="http://www.w3.org/1999/xlink" version="1.1" x="0px" y="0px" viewBox="0 0 100 125" style="enable-background:new 0 0 100 100;" xml:space="preserve"><path d="M84.2,70.2l-3.3-3.7c-0.6-0.7-1.5-1.1-2.4-1.2c0,0,0,0-0.1,0c-17.3-1.7-29.9-9.5-37.5-23.1C35.3,32,34.8,22.1,34.8,22  c0,0,0,0,0,0c0-1.1-0.4-2.1-1.3-2.9l-3.7-3.3c-1-0.9-2.6-0.8-3.5,0.1c-15.2,16-14.8,40.9,1,56.7c8.1,8.1,18.6,12.2,29,12.2  c10,0,19.9-3.7,27.7-11.1C85,72.8,85.1,71.2,84.2,70.2z M71.8,67.3c-9.8,2.5-22.5-1-30.3-8.8c-7.8-7.8-11.3-20.5-8.8-30.3  C35,39.2,43.3,61.7,71.8,67.3z M29.5,70.5C14.9,56,14.4,33.2,28.2,18.4l3.3,3c0.3,0.2,0.3,0.6,0.2,0.9c-5.8,11.3-2.4,28.2,7.7,38.3  c10.1,10.1,27,13.5,38.3,7.7c0.1-0.1,0.3-0.1,0.5-0.1c0,0,0,0,0,0c0.2,0,0.3,0.1,0.4,0.2l3,3.3C66.8,85.6,44,85.1,29.5,70.5z"/><text x="0" y="115" fill="#000000" font-size="5px" font-weight="bold" font-family="'Helvetica Neue', Helvetica, Arial-Unicode, Arial, Sans-serif">Created by Artem  Kovyazin</text><text x="0" y="120" fill="#000000" font-size="5px" font-weight="bold" font-family="'Helvetica Neue', Helvetica, Arial-Unicode, Arial, Sans-serif">from the Noun Project</text></svg>