<svg xmlns="http://www.w3.org/2000/svg" xmlns:xlink="http://www.w3.org/1999/xlink" version="1.1" x="0px" y="0px" viewBox="0 0 100 125" style="enable-background:new 0 0 100 100;" xml:space="preserve"><path d="M76.6,52.9c1.7-2.5,2.5-5.7,2.4-9.3c-0.2-6.1-3.1-12.4-7.6-16.4C63.1,19.8,53.7,19,50,19c-3.7,0-13.1,0.8-21.4,8.2  c-4.5,4-7.4,10.3-7.6,16.4c-0.1,3.6,0.8,6.8,2.5,9.4c0.1,0.2,0.3,0.4,0.4,0.6c0.3,0.4,0.7,0.9,1.1,1.2C28.2,58.1,32,59,35,59  c1.2,0,2.3-0.1,3.3-0.3c-1.3,5.9-2.4,13.4,1.2,18.1C41.7,79.6,45.2,81,50,81c4.8,0,8.3-1.4,10.5-4.2c3.6-4.7,2.6-12.2,1.2-18.1  c3.3,0.6,8.8,0.7,13.3-3.9c0.4-0.4,0.8-0.9,1.2-1.4c0.1-0.1,0.1-0.1,0.2-0.2C76.5,53.1,76.5,53,76.6,52.9z M27.1,52.7  c-0.3-0.3-0.6-0.7-0.9-1c0,0,0,0,0,0c-0.2-0.2-0.5-0.8-0.3-1.5c0.2-0.8,1.1-2.2,4.6-3.3c2.5-0.8,6.3-0.5,8.3,1.3  c1.1,1,1.5,2.4,1.1,4.2c-0.2,0.7-0.4,1.6-0.6,2.5c0,0.2-0.1,0.3-0.1,0.5C36.9,56.1,31.4,57.1,27.1,52.7z M58.1,74.9  C56.5,77,53.9,78,50,78s-6.5-1-8.1-3.1c-3.6-4.6-1.2-13.8,0.2-19.3c0.3-1,0.5-1.9,0.7-2.6c0.8-3.6-0.6-5.9-2-7.1  c-2.9-2.7-8-3-11.3-1.9c-2.7,0.9-4.3,2-5.3,3.1C24,45.9,24,44.8,24,43.8c0.2-5.3,2.7-10.8,6.6-14.3C38.1,22.7,46.7,22,50,22  s11.9,0.7,19.4,7.5c3.9,3.5,6.4,9,6.6,14.3c0,1,0,2.2-0.3,3.4c-1-1.1-2.6-2.2-5.3-3.1c-3.3-1.1-8.3-0.7-11.3,1.9  c-1.3,1.2-2.8,3.5-2,7.1c0.2,0.8,0.4,1.6,0.7,2.6C59.3,61.1,61.7,70.3,58.1,74.9z M60.9,55.4c0-0.2-0.1-0.4-0.1-0.5  c-0.2-1-0.5-1.8-0.6-2.5c-0.4-1.8-0.1-3.2,1.1-4.2c2-1.8,5.9-2.1,8.3-1.3c3.5,1.1,4.3,2.6,4.6,3.2c0.2,0.6,0.1,1.1-0.1,1.4  c-0.3,0.4-0.6,0.9-1,1.3C68.6,57.1,63.1,56.1,60.9,55.4z"/><text x="0" y="115" fill="#000000" font-size="5px" font-weight="bold" font-family="'Helvetica Neue', Helvetica, Arial-Unicode, Arial, Sans-serif">Created by Artem  Kovyazin</text><text x="0" y="120" fill="#000000" font-size="5px" font-weight="bold" font-family="'Helvetica Neue', Helvetica, Arial-Unicode, Arial, Sans-serif">from the Noun Project</text></svg>