<svg xmlns="http://www.w3.org/2000/svg" xmlns:xlink="http://www.w3.org/1999/xlink" version="1.1" x="0px" y="0px" viewBox="0 0 100 125" style="enable-background:new 0 0 100 100;" xml:space="preserve"><path d="M69.9,76.1c0-6.8-3.9-10.1-9-13.9c-3.7-2.7-4.2-7.7-4.2-8.4c0,0,0-0.1,0.1-0.1c3.1-6.7,6.5-17.4,4.8-30.9  c-0.1-0.6-0.5-1.1-1.1-1.3c-0.6-0.1-1.2,0.1-1.6,0.6c-1.4,2.1-2.7,4.3-3.8,6.6C54.9,22,54,14.4,51.5,6.1C51.3,5.5,50.7,5,50.1,5  s-1.2,0.4-1.4,1.1C46,14.4,45,22,44.9,28.7c-1.1-2.3-2.4-4.5-3.8-6.6c-0.4-0.5-1-0.8-1.6-0.6c-0.6,0.1-1.1,0.7-1.1,1.3  C36.6,36.3,40,47,43.1,53.7c0,0,0,0.1,0.1,0.1v0.1c0,0.1,0.5,5.1-4.2,8.3c-4.4,2.9-9.1,6.7-9.1,13.9c0,2.7,1,16,20,16  c0.2,0,0.3,0,0.5,0c0.1,0,0.1,0,0.2,0c0.1,0,0.2,0,0.3,0C69,91.6,69.9,78.7,69.9,76.1z M58.9,27.6c0.4,10.1-2,18.3-4.5,23.8  c-0.7-0.4-1.3-0.7-1.9-0.9c0.7-2.4,1.8-6.9,2.3-13.5l0.3-0.9C56.1,33.3,57.4,30.4,58.9,27.6z M49.9,12.4c3.8,16.5,1.4,30.4,0,36.1  C48.5,42.8,46.1,29,49.9,12.4z M40.9,27.6c1.6,2.8,2.9,5.7,3.9,8.6c0.1,0.2,0.2,0.6,0.3,0.8c0.5,6.6,1.6,11.2,2.3,13.6  c-0.7,0.2-1.4,0.5-1.9,0.8C42.9,45.9,40.5,37.7,40.9,27.6z M57.3,88.1c1.9-2.6,3-6.4,3-10.6c0-4.5-1.3-8.6-3.6-11.4  c-0.5-0.6-1.5-0.7-2.1-0.2s-0.7,1.5-0.2,2.1c1.8,2.2,2.9,5.7,2.9,9.5c0,6.1-3,11.3-6.5,11.5c-0.1,0-0.2,0-0.3,0  c-3.6-0.1-6.6-5.3-6.6-11.5c0-3.5,1-6.8,2.6-9.1c0.5-0.7,0.4-1.6-0.3-2.1s-1.6-0.4-2.1,0.3c-2,2.7-3.2,6.7-3.2,10.8  c0,4.5,1.3,8.4,3.3,11c-10.3-2.1-11.3-9.8-11.3-12.5c0-5.2,3-8.2,7.8-11.4c4.9-3.3,5.5-8.2,5.6-10.2c1.1-0.8,4.1-2.4,7.5,0.1  c0.2,1.9,1.2,7,5.4,10.1c4.7,3.4,7.8,6.1,7.8,11.4C66.9,78.5,66.1,85.6,57.3,88.1z"/><text x="0" y="115" fill="#000000" font-size="5px" font-weight="bold" font-family="'Helvetica Neue', Helvetica, Arial-Unicode, Arial, Sans-serif">Created by Artem  Kovyazin</text><text x="0" y="120" fill="#000000" font-size="5px" font-weight="bold" font-family="'Helvetica Neue', Helvetica, Arial-Unicode, Arial, Sans-serif">from the Noun Project</text></svg>