<svg xmlns="http://www.w3.org/2000/svg" xmlns:xlink="http://www.w3.org/1999/xlink" version="1.1" x="0px" y="0px" viewBox="0 0 100 125" style="enable-background:new 0 0 100 100;" xml:space="preserve"><g><path d="M22.9916992,65.7055664c0.3170166,0.0728149,0.6447144,0.1072998,0.9765015,0.1182251   c-0.0667725,0.3243408-0.1135254,0.6497803-0.1171265,0.9740601c-0.0136719,1.2807617,0.4916992,2.4082031,1.4228516,3.175293   c3.0883789,2.5449219,7.0585938,4.1835938,11.480957,4.7392578c0.2119141,0.0268555,0.4257812,0.0395508,0.640625,0.0395508   c1.5576172,0,3.1471558-0.6976929,4.4000854-1.7878418c0.0435791,0.0530396,0.0811768,0.1098022,0.1277466,0.1608887   c0.8100586,0.8876953,1.9648438,1.3618164,3.2631836,1.3618164c0.3305664,0,0.6708984-0.0307617,1.0166016-0.0932617   c4.706543-0.8505859,9.5180664-2.7246094,13.9140625-5.4194336c1.6958008-1.0400391,2.8959961-2.7114258,3.2099609-4.4697266   c0.003418-0.0189819,0.0014038-0.0370483,0.0045776-0.0559692c0.019165,0.0013428,0.0362549,0.0074463,0.055481,0.008606   c0.1088867,0.0063477,0.2177734,0.0097656,0.3271484,0.0092773c1.6865234,0,3.4477539-0.7641602,4.7700195-2.0834961   c3.6489258-3.6411133,6.5981445-7.8793945,8.527832-12.2573242c0.6982422-1.5839844,0.6142578-3.2089844-0.2304688-4.4575195   c-0.0360718-0.0532227-0.0795898-0.0996094-0.1179199-0.1507568c1.5394287-1.095459,2.675354-2.7501221,2.8713379-4.5025635   v0.0004883c0.4956055-4.4306641-0.1674805-8.6743164-1.9179688-12.2719727   c-0.5273438-1.0849609-1.5053711-1.840332-2.753418-2.1269531c-0.317688-0.0725098-0.6464233-0.1032104-0.9787598-0.1140137   c0.0673218-0.3255615,0.1143188-0.6522827,0.1179199-0.9777832c0.0141602-1.2802734-0.4907227-2.4082031-1.4223633-3.1757812   c-3.0874023-2.5444336-7.0581055-4.1831055-11.4814453-4.7392578c-1.7521973-0.2231445-3.6264038,0.4943848-5.0511475,1.7355957   c-0.0402222-0.0485229-0.0745239-0.1008301-0.1173096-0.1477051c-1.015625-1.1132812-2.574707-1.5761719-4.2797852-1.2685547   c-4.7080078,0.8505859-9.5195312,2.7246094-13.9135742,5.4194336c-1.6958008,1.0400391-2.8959961,2.7104492-3.2104492,4.4692383   c-0.003418,0.019165-0.0014648,0.0373535-0.0046387,0.0564575c-0.019104-0.0013428-0.0361938-0.0074463-0.0554199-0.008606   c-1.7880859-0.1118164-3.6889648,0.668457-5.097168,2.0742188c-3.6503906,3.6425781-6.5991211,7.8808594-8.5273438,12.2568359   c-0.6987305,1.5844727-0.6142578,3.2094727,0.230957,4.4580078c0.0358887,0.0530396,0.0786743,0.0993652,0.1168213,0.1503296   c-1.5394287,1.0952759-2.6752319,2.7498169-2.8712158,4.5025024c-0.4956055,4.4296875,0.1674805,8.6738281,1.918457,12.2724609   C20.7651367,64.6645508,21.7431641,65.4194336,22.9916992,65.7055664z M37.1289062,71.7358398   c-3.8583984-0.4848633-7.2978516-1.8950195-9.9477539-4.078125c-0.0830078-0.0683594-0.3359375-0.2768555-0.3300781-0.8271484   c0.0092773-0.8393555,0.59375-1.8378906,1.4897461-2.543457c0.0046997-0.0036621,0.0079346-0.0084229,0.0125732-0.012146   l17.0469971-13.4268188C45.7202148,50.5961914,46,50.53125,46.1567383,50.5307617   c-0.0009766,0.003418-0.0019531,0.0073242-0.0029297,0.0107422l-5.0976562,18.359375   C40.6054688,70.5239258,38.6591797,71.9282227,37.1289062,71.7358398z M49.852417,44.2171631   c0.0258179,0.0184326,0.0472412,0.0405273,0.0738525,0.0582275c0.2755127,0.1834106,0.5779419,0.3135376,0.8952637,0.3985596   C50.8305664,45,50.8812256,45.3227539,50.9941406,45.6313477c0.0110474,0.0301514,0.0274048,0.0563965,0.0393066,0.0859375   c-0.4053955,0.3840942-0.748291,0.838501-0.9865723,1.3520508c-0.0526733,0.1134033-0.0941772,0.2277832-0.1346436,0.3421631   c-0.1210327,0.0125122-0.2423706,0.0261841-0.3653564,0.0509033c-0.5546875,0.1113892-1.0764771,0.3382568-1.5446167,0.642334   c-0.0258789-0.0184326-0.0473633-0.0405884-0.0740356-0.0583496c-0.2749634-0.1831055-0.5785522-0.3086548-0.8953247-0.3937378   c-0.0085449-0.3277588-0.0595093-0.6521606-0.1730347-0.9622192c-0.0109253-0.0299072-0.0273438-0.0558472-0.0391235-0.085144   c0.4053345-0.3839111,0.7481079-0.8380737,0.9863892-1.3513794c0.0550537-0.1185913,0.098999-0.2380981,0.140686-0.357666   c0.119751-0.0124512,0.2369995-0.0118408,0.3588257-0.036377C48.8618164,44.7484131,49.3839722,44.5214233,49.852417,44.2171631z    M60.3740234,63.9765625c-0.1635742,0.9150391-0.862793,1.8496094-1.8251953,2.4399414   c-4.081543,2.5024414-8.5351562,4.2397461-12.8789062,5.0249023c-0.6674805,0.1201172-1.2236328-0.0024414-1.5297852-0.3378906   c-0.2871094-0.3149414-0.3554688-0.8125-0.1918945-1.4008789c0.0010376-0.0037842,0.0009155-0.0075073,0.0019531-0.0112915   l5.0907593-18.3345337c0.0003662-0.0012207,0.0012207-0.0020752,0.0015259-0.0032959   c0.0874023-0.3144531,0.3662109-0.6269531,0.7275391-0.815918c0.3046875-0.1586914,0.543457-0.1645508,0.5473633-0.1879883   l9.8603516,12.5185547C60.4433594,63.2055664,60.4311523,63.6572266,60.3740234,63.9765625z M74.2670898,48.9155273   c-1.78125,4.0405273-4.5136719,7.9628906-7.9018555,11.34375c-0.7993164,0.796875-1.8613281,1.2558594-2.7993164,1.203125   c-0.3237305-0.0195312-0.7661133-0.1132812-1.0317383-0.4506836l-9.7664185-12.3709717   c-0.0200195-0.0325317-0.0389404-0.0655518-0.0617065-0.0969849c0.0006104-0.0780029,0.0650635-0.2931519,0.2792969-0.5383911   c0.2680664-0.3071289,0.637207-0.5048828,0.9624023-0.5161133c0.0010376-0.000061,0.0019531-0.0003662,0.0029907-0.0004272   l19.0196533-0.6549683c0.0031128-0.0001221,0.0059814,0.0007324,0.0090942,0.0006104   c0.6171875-0.0166016,1.0786133,0.1621094,1.3173828,0.5151367C74.5512695,47.7250977,74.5400391,48.2958984,74.2670898,48.9155273   z M74.9194336,30.0551758c1.5014648,3.0869141,2.0668945,6.7612305,1.6342773,10.6259766v0.0004883   c-0.1713867,1.5332031-1.9921875,3.0957031-3.6757812,3.1538086l-19.0419922,0.6557617c-0.0039062,0-0.0078125,0-0.0117188,0   c0.0375977-0.1518555,0.1660156-0.4086914,0.4858398-0.6606445l17.0610352-13.4375   c0.7304688-0.5756836,1.6015625-0.9042969,2.3417969-0.9042969c0.1674805,0,0.3286133,0.0170898,0.4799805,0.0517578   C74.7290039,29.6635742,74.8720703,29.9580078,74.9194336,30.0551758z M60.7250977,20.5859375   c3.8588867,0.4853516,7.2988281,1.8955078,9.9477539,4.078125c0.0830078,0.0683594,0.3364258,0.2768555,0.3300781,0.8271484   c-0.0092773,0.8393555-0.59375,1.8378906-1.4897461,2.543457c-0.0054932,0.0043335-0.0093384,0.0098267-0.0147705,0.0142212   L52.4568481,41.4715576c-0.0010376,0.0007935-0.0021973,0.0012817-0.0032349,0.0020752   c-0.3198242,0.2519531-0.5996094,0.3168945-0.7563477,0.3173828c0.0009766-0.003418,0.0019531-0.0068359,0.0029297-0.0107422   l5.0976562-18.359375C57.2485352,21.7978516,59.199707,20.3955078,60.7250977,20.5859375z M37.4799805,28.3452148   c0.1635742-0.9145508,0.8632812-1.8496094,1.8256836-2.4394531c4.0800781-2.5019531,8.5332031-4.2397461,12.878418-5.0249023   c0.6655273-0.1201172,1.2241211,0.0024414,1.5297852,0.3378906c0.2871094,0.3149414,0.3554688,0.8120117,0.1918945,1.4003906   c-0.0010376,0.0037842-0.0009155,0.0075073-0.0019531,0.0112915L48.8125,40.967041   c-0.0001221,0.0004272-0.0003662,0.0007935-0.0004883,0.0012207c-0.0874023,0.3139648-0.3657227,0.6264648-0.7275391,0.815918   c-0.3046875,0.1591797-0.5429688,0.1650391-0.5473633,0.1879883c-0.000061-0.000061,0-0.000061-0.000061-0.0001221   l-9.8602905-12.5179443C37.4106445,29.1166992,37.4228516,28.6650391,37.4799805,28.3452148z M23.5874023,43.40625   c1.7797852-4.0385742,4.512207-7.9609375,7.9013672-11.34375c0.7988281-0.7973633,1.8789062-1.2636719,2.7988281-1.2026367   c0.3242188,0.019043,0.7661133,0.1132812,1.0317383,0.4506836c0.0007935,0.0010376,0.0018311,0.001709,0.0026245,0.0027466   l9.8255005,12.4732666c-0.0043335,0.0835571-0.0698242,0.291687-0.277832,0.5298462   c-0.2685547,0.3076172-0.6376953,0.5053711-0.9633789,0.5166016c-0.0010986,0.000061-0.0020752,0.0003662-0.0031738,0.0004272   l-19.0164185,0.6548462c-0.0042725,0.000061-0.0083618-0.0010376-0.0126343-0.0009766   c-0.6142578,0.0175781-1.078125-0.1621094-1.3164062-0.5146484C23.3032227,44.597168,23.3139648,44.0263672,23.5874023,43.40625z    M21.300293,51.6411133V51.640625c0.1713867-1.5336914,1.9921875-3.0957031,3.6757812-3.1538086l19.0429688-0.6557617   c0.0039062,0,0.0073242,0,0.0107422,0c-0.0375977,0.1523438-0.1660156,0.4086914-0.4858398,0.6606445l-17.0605469,13.4375   c-0.8964844,0.7060547-2.0053711,1.0395508-2.8212891,0.8525391c-0.5366211-0.1230469-0.6801758-0.4179688-0.7275391-0.5146484   C21.4331055,59.1796875,20.8676758,55.5053711,21.300293,51.6411133z"/><path d="M82.1264648,20.6289062c-0.024353-0.0305176-0.0539551-0.053833-0.0801392-0.0819702   c-0.0753784-0.098877-0.1435547-0.2020264-0.2206421-0.2998657c-5.1972656-6.5991211-13.5244141-10.0541992-23.4775391-9.7021484   C38.2299805,11.237793,17.480957,27.5820312,12.0952148,46.9785156   c-2.6616211,9.5849609-1.2646484,18.4975586,3.9326172,25.0961914c0.0018311,0.0023193,0.0037842,0.0043945,0.0056152,0.0067139   c0.0003052,0.0003662,0.0004272,0.0007324,0.0007324,0.0010986c0.0236206,0.0296021,0.0496826,0.0575562,0.0733643,0.0870972   c0.2929077,0.3679199,0.593811,0.7277222,0.9060669,1.0757446c8.1799927,9.588501,20.5569458,16.2097168,33.6812134,16.2092285   c8.3979492-0.0004883,17.0976562-2.7084961,25.1835938-9.078125C85.027832,73.1694336,90.527832,63.621582,91.7832031,52.7646484   C93.0688477,41.6464844,89.5493164,29.9331055,82.1264648,20.6289062z M14.9858398,47.78125   c5.0610352-18.2275391,24.5600586-33.5869141,43.4658203-34.2382812c0.4145508-0.0141602,0.8256836-0.0214844,1.2338867-0.0214844   c8.4125977,0,15.4047852,3.0229492,19.7836914,8.5820312c4.5908203,5.8286133,5.7983398,13.796875,3.3989258,22.4375   c-5.0610352,18.2280273-24.5595703,33.5869141-43.4658203,34.237793   c-8.9609375,0.3095703-16.4262695-2.7314453-21.0175781-8.5605469C13.793457,64.3896484,12.5864258,56.4213867,14.9858398,47.78125   z M88.8027344,52.4204102c-1.1611328,10.0454102-6.2724609,18.8974609-14.7807617,25.5996094   c-8.8896484,7.0019531-19.1948242,9.7397461-29.8051758,7.9204102c-4.6896973-0.8048706-9.2069702-2.4855347-13.3825684-4.9139404   c2.3110352,0.5059204,4.7596436,0.7738037,7.3288574,0.7738037c0.4438477,0,0.8916016-0.0078125,1.3427734-0.0234375   C59.6245117,81.0844727,80.3735352,64.7402344,85.7587891,45.34375c0.8904419-3.2067261,1.315979-6.3348389,1.3076172-9.3295288   C88.8049316,41.3704834,89.4326782,46.9740601,88.8027344,52.4204102z"/></g><text x="0" y="115" fill="#000000" font-size="5px" font-weight="bold" font-family="'Helvetica Neue', Helvetica, Arial-Unicode, Arial, Sans-serif">Created by Artem  Kovyazin</text><text x="0" y="120" fill="#000000" font-size="5px" font-weight="bold" font-family="'Helvetica Neue', Helvetica, Arial-Unicode, Arial, Sans-serif">from the Noun Project</text></svg>