<svg xmlns="http://www.w3.org/2000/svg" xmlns:xlink="http://www.w3.org/1999/xlink" version="1.1" x="0px" y="0px" viewBox="0 0 100 125" style="enable-background:new 0 0 100 100;" xml:space="preserve"><g><path d="M76.5,55.3c-0.4-10.3-3.4-17.2-8.9-20.5c-5.7-3.5-12.5-2-16-0.9c0.7-1.6,2.1-2.3,4.6-3.2c2-0.8,4.3-1.7,6.1-3.6   c4.8-5.1-2.1-12.6-2.4-12.9c-0.4-0.5-1.1-0.6-1.7-0.4c-0.6,0.2-0.9,0.8-0.9,1.4c0,1.2-1.5,4.3-7.4,7.9c-1.9,1.2-3.1,2.8-3.5,4.7   c-0.4,2.2,0.3,4.4,1,5.8c-3.6-1-9.8-2-15,1.2C27,38.1,24,45,23.6,55.3c-0.4,9.8,2,17.4,7,22.7c6.6,6.8,15.8,7.6,19.5,7.6   c3.7,0,12.9-0.7,19.4-7.6C74.5,72.7,76.9,65.1,76.5,55.3z M49.5,28.3c0.2-1.1,0.9-2,2.1-2.7c3.8-2.3,6.5-4.8,7.9-7.2   c1.2,2,2.4,4.8,0.7,6.6c-1.4,1.5-3.2,2.2-5,2.9c-1.9,0.7-4,1.5-5.4,3.3C49.4,30.2,49.3,29.2,49.5,28.3z M67.3,75.9   c-5.8,6-14,6.6-17.3,6.6c-3.3,0-11.5-0.6-17.3-6.7c-4.5-4.6-6.5-11.5-6.2-20.5c0.4-9.2,2.9-15.3,7.4-18.1c2.1-1.3,4.5-1.7,6.8-1.7   c4.6,0,8.5,1.8,8.6,1.8c0.4,0.2,0.9,0.2,1.3,0c0.1,0,8.9-4.1,15.4-0.1c4.6,2.8,7.1,8.9,7.4,18.1C73.9,64.4,71.8,71.3,67.3,75.9z"/><path d="M50.4,46.8c-0.2-0.1-0.5-0.1-0.7,0c-3.5,0.8-10,4.5-10,12.6c0,9.7,7.5,11.8,10.4,11.8h0c2.9,0,10.4-2.1,10.4-11.8   C60.5,51.3,53.9,47.6,50.4,46.8z M50.1,68.3L50.1,68.3c-0.1,0-7.4-0.1-7.4-8.8c0-6.9,5.9-9.2,7.4-9.6c1.5,0.5,7.4,2.7,7.4,9.6   C57.5,68.2,50.2,68.3,50.1,68.3z"/></g><text x="0" y="115" fill="#000000" font-size="5px" font-weight="bold" font-family="'Helvetica Neue', Helvetica, Arial-Unicode, Arial, Sans-serif">Created by Artem  Kovyazin</text><text x="0" y="120" fill="#000000" font-size="5px" font-weight="bold" font-family="'Helvetica Neue', Helvetica, Arial-Unicode, Arial, Sans-serif">from the Noun Project</text></svg>