<svg xmlns="http://www.w3.org/2000/svg" xmlns:xlink="http://www.w3.org/1999/xlink" version="1.1" x="0px" y="0px" viewBox="0 0 100 125" style="enable-background:new 0 0 100 100;" xml:space="preserve"><g><path d="M70.2,53.5c-5.1-6.4-5.1-10.3-5.1-14.7c0-7.1-3.5-15.2-13.3-16.1c0.6-2.4,2.1-7,5.8-9.7c0.7-0.5,0.8-1.4,0.3-2.1   c-0.5-0.7-1.4-0.8-2.1-0.3c-3,2.2-4.8,5.3-5.9,8c-1.9-3.7-5.9-8.6-14.3-8.3c-0.8,0-1.4,0.7-1.4,1.5c0,0.2,0,5.1,3.7,8.8   c1.5,1.5,3.5,2.6,5.8,3.2c-6.4,2.6-8.9,9.2-8.9,15.1c0,4.5,0,8.3-5.1,14.7c-4.7,6-5.1,13.3-5.1,15.5c0,0.2,0.7,20.9,25.3,20.9   c24.6,0,25.3-20.7,25.3-20.9C75.3,66.8,74.9,59.5,70.2,53.5z M37.4,13.2c6.9,0.4,9.6,5.4,10.6,8.1c-3.4-0.2-6-1.2-7.9-3   C38.4,16.7,37.7,14.6,37.4,13.2z M50,86.8c-21.6,0-22.3-17.7-22.3-17.9c0-1.9,0.3-8.4,4.4-13.6c5.3-6.7,5.7-11.1,5.7-16.6   c0-12.3,9.3-13.2,12.1-13.2s12.1,1,12.1,13.2c0,5.5,0.4,9.9,5.7,16.6c4.1,5.2,4.5,11.7,4.5,13.6C72.3,69.1,71.6,86.8,50,86.8z"/><path d="M48.5,28.1c-2.1,0.4-6.4,2.4-7.1,7.4c-0.1,0.8,0.4,1.6,1.3,1.7c0.1,0,0.1,0,0.2,0c0.7,0,1.4-0.5,1.5-1.3   c0.6-4.1,4.5-4.9,4.6-4.9c0.8-0.1,1.4-0.9,1.2-1.7C50.1,28.6,49.3,28,48.5,28.1z"/></g><text x="0" y="115" fill="#000000" font-size="5px" font-weight="bold" font-family="'Helvetica Neue', Helvetica, Arial-Unicode, Arial, Sans-serif">Created by Artem  Kovyazin</text><text x="0" y="120" fill="#000000" font-size="5px" font-weight="bold" font-family="'Helvetica Neue', Helvetica, Arial-Unicode, Arial, Sans-serif">from the Noun Project</text></svg>