<svg xmlns="http://www.w3.org/2000/svg" xmlns:xlink="http://www.w3.org/1999/xlink" version="1.1" x="0px" y="0px" viewBox="0 0 100 125" style="enable-background:new 0 0 100 100;" xml:space="preserve"><g><path d="M77.7,31.3c-2-2.6-4.8-4.1-7.9-4.3c-0.6-1.3-2.5-5.1-6.8-7.2c-3.3-1.6-7.3-1.8-11.7-0.5c-0.1,0-0.3,0.1-0.4,0.1   c-0.2,0.1-0.4,0.1-0.7,0.2c-4.8-1.6-9.1-1.6-12.7,0.2c-4.3,2.1-6.2,5.8-6.8,7.2c0,0,0,0-0.1,0c-3.3,0-6.2,1.5-8.3,4.3   C19.6,34.9,17.1,42.1,21,56c5.6,20.1,20.7,22.7,21.3,22.8c0.1,0,0.2,0,0.2,0c0,0,0,0,0.1,0c2,1.8,4.4,2.7,7.1,2.7   c2.9,0,5.4-0.9,7.5-2.7c0.1,0,0.2,0,0.3,0c0.1,0,0.2,0,0.2,0C58.4,78.7,73.5,76.1,79,56C82.9,42.1,80.4,34.9,77.7,31.3z M47.8,22.1   c-0.6,0.7-1.2,1.5-1.6,2.4c-0.3,0.8,0,1.6,0.8,2c0.2,0.1,0.4,0.1,0.6,0.1c0.6,0,1.1-0.3,1.4-0.9c0.6-1.4,2.3-2.8,3.1-3.4   c9.1-2.6,13.1,2.7,14.4,5.1c-3.8,0.9-6.2,3.3-7.3,4.9c-2.7-1.9-5.9-3-9.4-3c-3.4,0-6.6,1.1-9.2,2.9c-1.2-1.5-3.4-3.7-6.8-4.6   C35.1,25.1,39,19.8,47.8,22.1z M76.1,55.2C72.6,68.1,64.8,73,60.4,74.8c1.5-2.5,2.6-5.6,3.5-9.5c0.2-0.8-0.3-1.6-1.1-1.8   c-0.8-0.2-1.6,0.3-1.8,1.1c-2,9.2-5.8,13.8-11.2,13.8c-4.7,0-8.1-3.8-10.2-11.6c-0.2-0.8-1.1-1.3-1.8-1c-0.8,0.2-1.3,1-1,1.8   c0.8,2.8,1.7,5.1,2.8,7c-4.4-1.9-12.1-6.9-15.6-19.5c-3.7-13.4-1-19.6,0.9-22.1c1.5-2,3.6-3.1,5.9-3.1c4.2,0,6.6,2.6,7.7,4   c-2.9,2.9-4.7,7-4.7,11.4l0,0.5c0,0.8,0.7,1.5,1.5,1.5c0,0,0,0,0,0c0.8,0,1.5-0.7,1.5-1.5l0-0.5c0-7.3,5.9-13.2,13.1-13.2   c6.4,0,12,4.8,13,11.2c0.1,0.8,0.9,1.4,1.7,1.3c0.8-0.1,1.4-0.9,1.3-1.7c-0.5-3.4-2.1-6.4-4.3-8.7c1-1.4,3.5-4.2,7.8-4.2   c2.3,0,4.4,1.1,5.9,3.1C77.2,35.6,79.8,41.8,76.1,55.2z"/><path d="M47.3,35.8C47,35.9,42,37.3,41,42.9c-0.1,0.8,0.4,1.6,1.2,1.7c0.1,0,0.2,0,0.3,0c0.7,0,1.3-0.5,1.5-1.2   c0.7-3.7,3.9-4.7,4-4.7c0.8-0.2,1.3-1,1.1-1.8C48.9,36.1,48.1,35.6,47.3,35.8z"/></g><text x="0" y="115" fill="#000000" font-size="5px" font-weight="bold" font-family="'Helvetica Neue', Helvetica, Arial-Unicode, Arial, Sans-serif">Created by Artem  Kovyazin</text><text x="0" y="120" fill="#000000" font-size="5px" font-weight="bold" font-family="'Helvetica Neue', Helvetica, Arial-Unicode, Arial, Sans-serif">from the Noun Project</text></svg>