<svg xmlns="http://www.w3.org/2000/svg" xmlns:xlink="http://www.w3.org/1999/xlink" version="1.1" x="0px" y="0px" viewBox="0 0 100 125" style="enable-background:new 0 0 100 100;" xml:space="preserve"><g><path d="M68.6,36.3c1.2-0.6,2.5-1,3.2-1.1c0.6-0.1,1-0.5,1.2-1c0.2-0.5,0-1.1-0.3-1.5c-4.7-5-12.9-7.5-19.7-8.1   c1-2.5,2.8-5.2,5.8-7.7c0.6-0.5,0.7-1.5,0.2-2.1c-0.5-0.6-1.5-0.7-2.1-0.2c-3.9,3.2-6,6.8-7.1,9.9c-6.7,0.1-16.4,2.2-22.3,8.2   c-0.4,0.4-0.5,1-0.4,1.5c0.2,0.5,0.6,0.9,1.2,1c0.6,0.1,1.9,0.5,3.2,1.1c-6.3,4.6-9.3,11.6-8.9,21.1C23.5,77.2,43.7,91.2,50,91.2   c6.3,0,26.5-14,27.5-33.9C78,46,73.3,39.7,68.6,36.3z M48.8,27.5c-0.6,2.9-0.4,5-0.3,5.2c0.1,0.8,0.7,1.3,1.5,1.3   c0.1,0,0.1,0,0.2,0c0.8-0.1,1.4-0.8,1.3-1.7c0-0.2-0.2-2.1,0.4-4.8c5.4,0.3,12.1,2.1,16.6,5.5c-1.6,0.6-3.6,1.8-4.8,3.6   c-0.6,1-1,2.1-1,3.2c-3.9-1-9.3-1.1-12.6,3.1c-2.2-2.7-5.3-3.6-8.3-3.6c-1.5,0-3,0.2-4.3,0.6c-0.1-1.2-0.4-2.2-1-3.2   c-1.2-1.8-3.2-2.9-4.8-3.6C36.3,29.5,43.2,27.7,48.8,27.5z M74.4,57.2c-0.9,18.6-20,31-24.5,31c-4.5,0-23.6-12.4-24.5-31   c-0.4-8.7,2.4-15,8.3-18.9c0.6,0.9,0.7,2,0.3,3.3c-0.2,0.6,0,1.1,0.5,1.5s1,0.5,1.6,0.2c0.4-0.2,9.2-3.8,12.4,3   c0.2,0.5,0.8,0.9,1.4,0.9c0.6,0,1.1-0.3,1.4-0.9c3.2-6.8,12.1-3.1,12.4-3c0.5,0.2,1.1,0.1,1.6-0.2c0.4-0.4,0.6-1,0.5-1.5   c-0.4-1.3-0.2-2.4,0.3-3.3C72.1,42.2,74.9,48.6,74.4,57.2z"/><path d="M33.9,50.5c-0.8,0-1.5,0.7-1.5,1.5v3c0,0.8,0.7,1.5,1.5,1.5s1.5-0.7,1.5-1.5v-3C35.4,51.2,34.7,50.5,33.9,50.5z"/><path d="M44.3,50.5c-0.8,0-1.5,0.7-1.5,1.5v3c0,0.8,0.7,1.5,1.5,1.5s1.5-0.7,1.5-1.5v-3C45.8,51.2,45.1,50.5,44.3,50.5z"/><path d="M54.7,50.5c-0.8,0-1.5,0.7-1.5,1.5v3c0,0.8,0.7,1.5,1.5,1.5s1.5-0.7,1.5-1.5v-3C56.2,51.2,55.5,50.5,54.7,50.5z"/><path d="M65.1,50.5c-0.8,0-1.5,0.7-1.5,1.5v3c0,0.8,0.7,1.5,1.5,1.5s1.5-0.7,1.5-1.5v-3C66.6,51.2,66,50.5,65.1,50.5z"/><path d="M39.3,61.5c-0.8,0-1.5,0.7-1.5,1.5v3c0,0.8,0.7,1.5,1.5,1.5s1.5-0.7,1.5-1.5v-3C40.8,62.2,40.1,61.5,39.3,61.5z"/><path d="M49.7,61.5c-0.8,0-1.5,0.7-1.5,1.5v3c0,0.8,0.7,1.5,1.5,1.5s1.5-0.7,1.5-1.5v-3C51.2,62.2,50.5,61.5,49.7,61.5z"/><path d="M60.1,61.5c-0.8,0-1.5,0.7-1.5,1.5v3c0,0.8,0.7,1.5,1.5,1.5s1.5-0.7,1.5-1.5v-3C61.6,62.2,60.9,61.5,60.1,61.5z"/><path d="M44.3,72.5c-0.8,0-1.5,0.7-1.5,1.5v3c0,0.8,0.7,1.5,1.5,1.5s1.5-0.7,1.5-1.5v-3C45.8,73.2,45.1,72.5,44.3,72.5z"/><path d="M54.7,72.5c-0.8,0-1.5,0.7-1.5,1.5v3c0,0.8,0.7,1.5,1.5,1.5s1.5-0.7,1.5-1.5v-3C56.2,73.2,55.5,72.5,54.7,72.5z"/></g><text x="0" y="115" fill="#000000" font-size="5px" font-weight="bold" font-family="'Helvetica Neue', Helvetica, Arial-Unicode, Arial, Sans-serif">Created by Artem  Kovyazin</text><text x="0" y="120" fill="#000000" font-size="5px" font-weight="bold" font-family="'Helvetica Neue', Helvetica, Arial-Unicode, Arial, Sans-serif">from the Noun Project</text></svg>