<svg xmlns="http://www.w3.org/2000/svg" xmlns:xlink="http://www.w3.org/1999/xlink" version="1.1" x="0px" y="0px" viewBox="0 0 100 125" style="enable-background:new 0 0 100 100;" xml:space="preserve"><g><path d="M83.9,47c-0.9-11.4-11-18.9-20.2-19.7c-0.5-2-2.5-3.3-4.9-3.3h-1.1c-1,0-1.8-0.5-2-0.9l-0.3-0.8c0,0,0,0,0,0   c-0.7-1.7-2.6-2.8-4.7-2.8c0,0,0,0,0,0c-2.2,0-4,1.1-4.7,2.8l-0.3,0.8c-0.2,0.5-0.9,1-2,1h-1.1c-2.4,0-4.3,1.3-4.9,3.2   c-9.4,0.5-20.1,8.4-21.4,19.7c-1.1,9.1,1,16.7,6.2,22.6c6.1,6.8,16.4,10.9,27.6,10.9c10.9,0,20.7-3.8,26.8-10.4   C82.3,64.2,84.6,56.4,83.9,47z M42.6,27h1.1c2.1,0,4-1.1,4.7-2.8l0.3-0.8c0.3-0.7,1.2-0.9,2-0.9c0,0,0,0,0,0c0.8,0,1.7,0.3,2,0.9   l0.3,0.8c0.7,1.7,2.6,2.8,4.7,2.8h1.1c1.1,0,1.9,0.5,2,1.1c0.1,0.5-0.3,0.8-0.7,1l-0.9,0.5c-1.9,1.1-2.7,3.1-1.9,4.9l0.3,0.8   c0.1,0.1,0.2,0.5-0.3,0.9c-0.7,0.6-2,0.8-3,0.2L53.5,36c-1.7-0.9-3.9-0.9-5.6,0L47,36.5c-1.1,0.6-2.4,0.3-3-0.2   c-0.5-0.4-0.3-0.7-0.3-0.9l0.3-0.8c0.8-1.8,0-3.8-1.9-4.9l-0.9-0.5c-0.4-0.2-0.8-0.6-0.7-1C40.7,27.6,41.4,27,42.6,27z M74.6,68.1   c-5.5,6-14.5,9.4-24.5,9.4c-10.4,0-19.8-3.7-25.3-9.9c-4.6-5.2-6.5-12-5.5-20.3c1.2-10,10.7-16.8,18.9-17.1   c0.4,0.6,0.9,1.1,1.6,1.5l0.9,0.5c0.1,0.1,0.9,0.5,0.6,1.1l-0.3,0.8c-0.6,1.5-0.2,3.1,1,4.3c0.9,0.8,2.3,1.3,3.7,1.3   c0.9,0,1.9-0.2,2.8-0.7l0.9-0.5c0.8-0.4,1.9-0.4,2.7,0l0.9,0.5c2.3,1.3,5,0.7,6.5-0.6c1.3-1.1,1.7-2.8,1-4.3L60,33.4   c-0.3-0.6,0.5-1,0.6-1.1l0.9-0.5c0.7-0.4,1.2-0.9,1.6-1.4c8,0.6,16.9,7.1,17.7,17C81.6,55.8,79.5,62.8,74.6,68.1z"/><path d="M50.6,33c1.5,0,2.9-0.5,3.8-1.3c0.5-0.5,0.6-1.3,0.1-1.8c-0.5-0.5-1.3-0.6-1.8-0.1c-0.3,0.3-1,0.6-2.1,0.6   c-1.3,0-2.1-0.5-2.2-0.7c0,0,0-0.1,0.2-0.2c0.6-0.4,0.7-1.2,0.3-1.8c-0.4-0.6-1.2-0.7-1.8-0.3c-0.8,0.6-1.3,1.4-1.3,2.3   C45.9,31.6,47.9,33,50.6,33z"/><path d="M26.9,43.6c-0.8-0.2-1.6,0.2-1.9,1c-0.2,0.6-0.3,1.2-0.4,1.7c-0.2,0.8,0.4,1.6,1.2,1.8c0.1,0,0.2,0,0.3,0   c0.7,0,1.3-0.5,1.5-1.2c0.1-0.5,0.2-1,0.4-1.4C28.1,44.7,27.7,43.9,26.9,43.6z"/><path d="M33.9,35.3c-0.2,0.1-4.2,1.4-7,5.4c-0.5,0.7-0.3,1.6,0.4,2.1c0.3,0.2,0.6,0.3,0.8,0.3c0.5,0,0.9-0.2,1.2-0.7   c2.2-3.2,5.4-4.3,5.5-4.3c0.8-0.2,1.2-1.1,1-1.9C35.5,35.5,34.7,35.1,33.9,35.3z"/></g><text x="0" y="115" fill="#000000" font-size="5px" font-weight="bold" font-family="'Helvetica Neue', Helvetica, Arial-Unicode, Arial, Sans-serif">Created by Artem  Kovyazin</text><text x="0" y="120" fill="#000000" font-size="5px" font-weight="bold" font-family="'Helvetica Neue', Helvetica, Arial-Unicode, Arial, Sans-serif">from the Noun Project</text></svg>