<svg xmlns="http://www.w3.org/2000/svg" xmlns:xlink="http://www.w3.org/1999/xlink" version="1.1" x="0px" y="0px" viewBox="0 0 100 125" style="enable-background:new 0 0 100 100;" xml:space="preserve"><g><path d="M88,53.2c-1.8-9.3-7-18.7-14.8-26.5c-7.8-7.8-17.2-13-26.5-14.8c-9.5-1.8-17.8,0.2-23.3,5.8C9.6,31.6,7.6,53,17.6,69.1   c0,0.1,0.1,0.1,0.1,0.1c1.6,2.6,3.6,5.1,5.8,7.3c2.2,2.2,4.7,4.2,7.3,5.8c0.1,0.1,0.3,0.3,0.5,0.3c6.6,4,14.1,6.1,21.6,6.1   c10.7,0,21.3-4.1,29.4-12.2C87.8,71,89.9,62.7,88,53.2z M17.1,32.6c-0.2,2.7,0,5.5,0.6,8.4c0.7,3.4,1.8,6.9,3.3,10.3   c-1.2,1.5-3.5,4.9-4.2,9.6C13.4,51.8,13.5,41.6,17.1,32.6z M20.2,67.7c-1.6-6.3,0.7-11,2.3-13.4c2.3,4.3,5.3,8.4,8.9,12.2l-6.9,6.9   C22.9,71.6,21.5,69.7,20.2,67.7z M32.5,79.9c-2-1.3-4-2.7-5.8-4.4l6.9-6.9c3.8,3.6,7.9,6.6,12.3,9C43.5,79.1,38.7,81.5,32.5,79.9z    M39.3,83.2c4.8-0.7,8.1-3,9.6-4.2c3.3,1.5,6.8,2.6,10.2,3.3c2.3,0.4,4.4,0.6,6.5,0.6c0.7,0,1.3,0,1.9-0.1   C58.5,86.5,48.3,86.6,39.3,83.2z M80.2,74.4c-4.8,4.8-12.1,6.5-20.6,4.9c-8.7-1.7-17.6-6.6-24.9-14C30.2,61,26.7,56,24.2,50.9   c0,0,0,0,0,0c-1.7-3.5-2.9-7-3.6-10.5c-1.6-8.5,0.1-15.8,4.9-20.6c3.6-3.6,8.7-5.5,14.7-5.5c1.9,0,3.9,0.2,6,0.6   c8.7,1.7,17.6,6.6,24.9,14s12.3,16.2,14,24.9C86.7,62.3,85,69.6,80.2,74.4z"/><path d="M28.4,22.6c-8.7,8.7-4.7,26.7,8.8,40.2c6.5,6.5,14.1,11,21.6,12.7c2.2,0.5,4.3,0.8,6.3,0.8c5,0,9.3-1.6,12.3-4.7   c8.7-8.7,4.7-26.7-8.8-40.2C55.1,17.9,37,13.9,28.4,22.6z M75.3,69.5c-3.5,3.5-9.2,4.6-15.8,3.1c-6.9-1.6-14.1-5.8-20.1-11.9   c-12.3-12.3-16.3-28.5-8.8-36c2.6-2.6,6.2-3.8,10.3-3.8c7.9,0,17.6,4.5,25.7,12.6C78.8,45.9,82.8,62,75.3,69.5z"/><path d="M61.6,35.3c-0.6,0.6-0.9,2.3,0,3.2c0.9,0.9,2.7,0.5,3.2,0c0.6-0.6,0.3-1.7-0.6-2.6C63.3,35,62.1,34.7,61.6,35.3z"/><path d="M40.9,55.9c-0.6,0.6-0.3,1.7,0.6,2.6c0.9,0.9,2,1.1,2.6,0.6c0.6-0.6,0.9-2.3,0-3.2C43.2,55,41.4,55.4,40.9,55.9z"/><path d="M70.8,65.2c0.6-0.6,0.3-1.7-0.6-2.6c-0.9-0.9-3-2.1-3.6-1.6s0.7,2.7,1.6,3.6C69.1,65.5,70.2,65.7,70.8,65.2z"/><path d="M34.8,29.2c-0.6,0.6-0.3,1.7,0.6,2.6s3,2.1,3.6,1.6c0.6-0.6-0.7-2.7-1.6-3.6S35.4,28.6,34.8,29.2z"/><path d="M36.4,39.6c0-0.9-1.9-2.6-3-3.1s-1.9-0.1-1.9,0.8c0,0.9,0.8,2.1,1.8,2.5C34.4,40.3,36.4,40.5,36.4,39.6z"/><path d="M69.1,54.8c0,0.9,1.9,2.6,3,3.1c1,0.5,1.9,0.1,1.9-0.8c0-0.9-0.8-2.1-1.8-2.5C71.2,54.1,69.2,53.9,69.1,54.8z"/><path d="M53.6,28.4c-1-0.5-1.9-0.1-1.9,0.8c0,0.9,0.7,3.1,1.8,3.6c1,0.5,2-0.9,2-1.8C55.4,30,54.6,28.9,53.6,28.4z"/><path d="M52.1,61.7c-1-0.5-2,0.9-2,1.8s0.8,2.1,1.8,2.5c1,0.5,1.9,0.1,1.9-0.8C53.9,64.3,53.2,62.2,52.1,61.7z"/><path d="M60.4,63.5c-0.9,0-0.7,2.1-0.2,3.1c0.5,1,1.6,1.8,2.5,1.8c0.9,0,1.3-0.9,0.8-1.9C63,65.5,61.3,63.5,60.4,63.5z"/><path d="M42.9,25.9c-0.9,0-1.3,0.9-0.8,1.9c0.5,1,2.2,3,3.1,3c0.9,0,0.7-2.1,0.2-3.1C45,26.7,43.8,25.9,42.9,25.9z"/><path d="M34.8,46.1c-0.9,0-1.3,0.9-0.8,1.9c0.5,1,1.6,1.8,2.5,1.8c0.9,0,2.3-1,1.8-2S35.7,46,34.8,46.1z"/><path d="M70.8,48.3c0.9,0,1.3-0.9,0.8-1.9c-0.5-1-1.6-1.8-2.5-1.8c-0.9,0-2.3,1-1.8,2C67.8,47.6,69.9,48.3,70.8,48.3z"/></g><text x="0" y="115" fill="#000000" font-size="5px" font-weight="bold" font-family="'Helvetica Neue', Helvetica, Arial-Unicode, Arial, Sans-serif">Created by Artem  Kovyazin</text><text x="0" y="120" fill="#000000" font-size="5px" font-weight="bold" font-family="'Helvetica Neue', Helvetica, Arial-Unicode, Arial, Sans-serif">from the Noun Project</text></svg>